<svg width="20" height="20" viewBox="0 0 20 20" fill="none" xmlns="http://www.w3.org/2000/svg">
<path d="M20 17.3279L18.5787 4.37247C18.5279 4.12955 18.2741 3.92713 17.9695 3.92713H14.9239C14.9239 1.78138 12.7411 0 10 0C7.25888 0 5.07614 1.74089 5.07614 3.92713H2.03046C1.72589 3.92713 1.42132 4.12955 1.42132 4.37247L0 17.3279V17.3684C0 18.8259 1.67513 20 3.70558 20H16.2944C18.3249 20 20 18.8259 20 17.3684V17.3279ZM9.94924 1.01215C11.9797 1.01215 13.6041 2.30769 13.6041 3.92713H6.29442C6.29442 2.30769 7.91878 1.01215 9.94924 1.01215ZM16.2437 18.9879H3.65482C2.28426 18.9879 1.21827 18.2591 1.16751 17.3684L2.53807 4.89879H5.02538V6.63968C5.02538 6.92308 5.32995 7.12551 5.63452 7.12551C5.98985 7.12551 6.24365 6.88259 6.24365 6.63968V4.89879H13.5533V6.63968C13.5533 6.92308 13.8579 7.12551 14.1624 7.12551C14.5178 7.12551 14.7716 6.88259 14.7716 6.63968V4.89879H17.2589L18.6294 17.3684C18.731 18.2591 17.6142 18.9879 16.2437 18.9879Z" fill="white"/>
</svg>
