<svg width="40" height="26" viewBox="0 0 40 26" fill="none" xmlns="http://www.w3.org/2000/svg">
<path d="M35.7304 0H4.26956C1.91768 0 0 1.9611 0 4.36622V21.6338C0 24.0389 1.91768 26 4.26956 26H35.7304C38.0823 26 40 24.0389 40 21.6338V4.36622C40 1.9611 38.0823 0 35.7304 0ZM4.26956 1.2334H35.7304C37.2984 1.2334 38.5828 2.44829 38.7577 4.00854H1.24227C1.41716 2.44829 2.70164 1.2334 4.26956 1.2334ZM35.7304 24.7666H4.26956C2.58103 24.7666 1.20609 23.3605 1.20609 21.6338V8.22059H38.7939V21.6338C38.7939 23.3605 37.419 24.7666 35.7304 24.7666Z" fill="#3D74A6"/>
<path d="M15.2805 18.39C15.0513 18.5072 14.587 18.6243 13.996 18.6243C12.6211 18.6243 11.5898 17.7363 11.5898 16.102C11.5898 14.4678 12.6211 13.4811 14.1347 13.4811C14.7438 13.4811 15.1237 13.6168 15.2925 13.7031L15.1418 14.2273C14.9006 14.1101 14.5629 14.0176 14.1588 14.0176C13.0191 14.0176 12.2592 14.7638 12.2592 16.0712C12.2592 17.2923 12.9467 18.0755 14.1347 18.0755C14.5206 18.0755 14.9066 17.9953 15.1599 17.8658L15.2925 18.3777L15.2805 18.39Z" fill="#3D74A6"/>
<path d="M16.8844 16.9839L16.3779 18.5503H15.7266L17.3849 13.5674H18.1448L19.8092 18.5503H19.1338L18.6091 16.9839H16.8784H16.8844ZM18.4825 16.4782L18.0061 15.0413C17.8975 14.7144 17.8252 14.4184 17.7528 14.1286H17.7347C17.6623 14.4246 17.5839 14.7268 17.4875 15.029L17.011 16.472H18.4825V16.4782Z" fill="#3D74A6"/>
<path d="M20.5273 13.6352C20.847 13.5674 21.2992 13.5304 21.7334 13.5304C22.4088 13.5304 22.837 13.6537 23.1446 13.9374C23.3918 14.1594 23.5305 14.4986 23.5305 14.8871C23.5305 15.547 23.1265 15.9787 22.6139 16.1575V16.1822C22.9878 16.3179 23.2169 16.6694 23.3315 17.1874C23.4883 17.8843 23.6029 18.3653 23.7054 18.5565H23.0541C22.9757 18.4146 22.8672 17.9891 22.7285 17.3663C22.5837 16.6756 22.3244 16.4165 21.7515 16.398H21.1605V18.5565H20.5334V13.6352H20.5273ZM21.1545 15.9047H21.7998C22.4752 15.9047 22.8973 15.5285 22.8973 14.955C22.8973 14.3136 22.439 14.0299 21.7756 14.0238C21.4741 14.0238 21.257 14.0546 21.1545 14.0854V15.9047Z" fill="#3D74A6"/>
<path d="M24.416 13.6352C24.7959 13.5736 25.2542 13.5304 25.7548 13.5304C26.6593 13.5304 27.3046 13.7462 27.7267 14.1533C28.1609 14.5603 28.4142 15.14 28.4142 15.9417C28.4142 16.7434 28.167 17.4218 27.7147 17.8781C27.2564 18.3468 26.5086 18.5935 25.5618 18.5935C25.1155 18.5935 24.7356 18.5688 24.422 18.5318V13.6291L24.416 13.6352ZM25.0432 18.0446C25.2 18.0755 25.4352 18.0816 25.6824 18.0816C27.0272 18.0816 27.7569 17.3108 27.7569 15.9664C27.7629 14.7885 27.1116 14.0423 25.7849 14.0423C25.4593 14.0423 25.212 14.0731 25.0492 14.1101V18.0446H25.0432Z" fill="#3D74A6"/>
</svg>
