<svg width="18" height="20" viewBox="0 0 18 20" fill="none" xmlns="http://www.w3.org/2000/svg">
<path d="M7.36364 0C6.45995 0 5.72727 0.7164 5.72727 1.6V2.4H5.56348L0 3.2V4.4H18V3.2L12.4365 2.4H12.2727V1.6C12.2727 0.7164 11.54 0 10.6364 0H7.36364ZM7.36364 1.6H10.6364V2.4H7.36364V1.6ZM0.818182 5.2L1.92321 18.5289C1.99193 19.3597 2.70223 20 3.55478 20H14.446C15.2986 20 16.0077 19.3605 16.0768 18.5297L17.1507 5.6L0.818182 5.2ZM4.09091 8C4.54295 8 4.90909 8.358 4.90909 8.8V18H3.68182L3.27273 8.8C3.27273 8.358 3.63886 8 4.09091 8ZM9 8C9.67786 8 10.2273 8.5372 10.2273 9.2V18H7.77273V9.2C7.77273 8.5372 8.32214 8 9 8ZM13.9091 8C14.3611 8 14.7273 8.358 14.7273 8.8L14.3182 18H13.0909V8.8C13.0909 8.358 13.457 8 13.9091 8Z" fill="#0088CC"/>
</svg>
