<svg width="16" height="18" viewBox="0 0 16 18" fill="none" xmlns="http://www.w3.org/2000/svg">
<path d="M6.54545 0C5.74218 0 5.09091 0.64476 5.09091 1.44V2.16H4.94531L0 2.88V3.96H16V2.88L11.0547 2.16H10.9091V1.44C10.9091 0.64476 10.2578 0 9.45455 0H6.54545ZM6.54545 1.44H9.45455V2.16H6.54545V1.44ZM0.727273 4.68L1.70952 16.676C1.77061 17.4237 2.40198 18 3.1598 18H12.8409C13.5987 18 14.229 17.4244 14.2905 16.6767L15.245 5.04L0.727273 4.68ZM3.63636 7.2C4.03818 7.2 4.36364 7.5222 4.36364 7.92V16.2H3.27273L2.90909 7.92C2.90909 7.5222 3.23455 7.2 3.63636 7.2ZM8 7.2C8.60255 7.2 9.09091 7.68348 9.09091 8.28V16.2H6.90909V8.28C6.90909 7.68348 7.39745 7.2 8 7.2ZM12.3636 7.2C12.7655 7.2 13.0909 7.5222 13.0909 7.92L12.7273 16.2H11.6364V7.92C11.6364 7.5222 11.9618 7.2 12.3636 7.2Z" fill="#018762"/>
</svg>
