<svg width="20" height="23" viewBox="0 0 20 23" fill="none" xmlns="http://www.w3.org/2000/svg">
<path d="M8.18182 0C7.17773 0 6.36364 0.82386 6.36364 1.84V2.76H6.18164L0 3.68V5.06H20V3.68L13.8184 2.76H13.6364V1.84C13.6364 0.82386 12.8223 0 11.8182 0H8.18182ZM8.18182 1.84H11.8182V2.76H8.18182V1.84ZM0.909091 5.98L2.1369 21.3082C2.21326 22.2637 3.00248 23 3.94975 23H16.0511C16.9984 23 17.7863 22.2646 17.8631 21.3091L19.0563 6.44L0.909091 5.98ZM4.54545 9.2C5.04773 9.2 5.45455 9.6117 5.45455 10.12V20.7H4.09091L3.63636 10.12C3.63636 9.6117 4.04318 9.2 4.54545 9.2ZM10 9.2C10.7532 9.2 11.3636 9.81778 11.3636 10.58V20.7H8.63636V10.58C8.63636 9.81778 9.24682 9.2 10 9.2ZM15.4545 9.2C15.9568 9.2 16.3636 9.6117 16.3636 10.12L15.9091 20.7H14.5455V10.12C14.5455 9.6117 14.9523 9.2 15.4545 9.2Z" fill="#00CB6A"/>
</svg>
