<svg width="39" height="34" viewBox="0 0 39 34" fill="none" xmlns="http://www.w3.org/2000/svg">
<path d="M3.43945 18.6387V34.0001H39.0006V18.6387H3.43945ZM37.6081 31.2982C36.8414 31.2982 36.2157 31.9066 36.2157 32.6519C36.2157 32.6683 36.2157 32.6903 36.2157 32.7067H6.21309C6.21309 32.7067 6.21309 32.6738 6.21309 32.6519C6.21309 31.9066 5.59297 31.2982 4.82063 31.2982C4.80372 31.2982 4.78681 31.2982 4.76426 31.2982V21.335C4.76426 21.335 4.80372 21.335 4.82063 21.335C5.58733 21.335 6.21309 20.7322 6.21309 19.9814C6.21309 19.9649 6.21309 19.943 6.21309 19.9266H36.2213C36.2213 19.9266 36.2213 19.9594 36.2213 19.9814C36.2213 20.7267 36.8414 21.335 37.6138 21.335C37.6307 21.335 37.6532 21.335 37.6702 21.335V31.2982C37.6702 31.2982 37.6363 31.2982 37.6138 31.2982H37.6081ZM25.031 26.3221C25.031 29.1609 23.3228 31.4627 21.22 31.4627C19.1172 31.4627 17.4091 29.1609 17.4091 26.3221C17.4091 23.4833 19.1172 21.1815 21.22 21.1815C23.3228 21.1815 25.031 23.4833 25.031 26.3221Z" fill="#3D74A6"/>
<path d="M19.7633 16.2492C19.1037 16.4191 18.5456 16.8082 18.1172 17.3398H23.2191C22.2044 16.3862 20.9472 15.9423 19.7633 16.2492Z" fill="#3D74A6"/>
<path d="M11.4884 17.3398L33.9762 11.4813C33.9762 11.4813 33.9762 11.5142 33.9875 11.5361C34.1848 12.2595 34.9515 12.6869 35.69 12.4951C35.7069 12.4951 35.7238 12.4787 35.7407 12.4732L37.0825 17.3398H38.4636L36.3101 9.53027L6.33008 17.3398H11.4884Z" fill="#3D74A6"/>
<path d="M16.5973 10.6592C15.5487 11.2456 14.9906 12.402 14.9512 13.7556L21.733 11.991C20.1827 10.4126 18.1138 9.81526 16.6029 10.6647L16.5973 10.6592Z" fill="#3D74A6"/>
<path d="M0.332611 17.559L3.78838 16.6602L29.0611 2.47163C29.0611 2.47163 29.0724 2.50451 29.0837 2.52095C29.467 3.16763 30.3183 3.38685 30.9835 3.01418C31.0004 3.00322 31.0117 2.99226 31.0286 2.9813L34.4111 8.67537L35.7472 8.32463L30.7975 0L0 17.285L0.332611 17.559Z" fill="#3D74A6"/>
</svg>
