<svg width="37" height="37" viewBox="0 0 37 37" fill="none" xmlns="http://www.w3.org/2000/svg">
<circle cx="18.5" cy="18.5" r="18.5" fill="#3D74A6"/>
<path d="M13.7503 11.2491C11.5477 11.2491 9.75195 13.0434 9.75195 15.249C9.75195 17.4546 11.5477 19.2473 13.7503 19.2473C15.9528 19.2473 17.7509 17.4531 17.7509 15.249C17.7509 13.0449 15.9551 11.2491 13.7503 11.2491ZM13.7503 18.633C11.8846 18.633 10.3678 17.1147 10.3678 15.2482C10.3678 13.3817 11.8846 11.865 13.7503 11.865C15.616 11.865 17.1351 13.3833 17.1351 15.2482C17.1351 17.1132 15.6168 18.633 13.7503 18.633Z" fill="#D5D5D5"/>
<path d="M15.3805 13.4913L13.7504 15.1221L12.1226 13.4913C12.0017 13.3719 11.8071 13.3719 11.6877 13.4913C11.5676 13.6129 11.5676 13.806 11.6877 13.9261L13.5314 15.7736C13.593 15.8329 13.6721 15.8641 13.7496 15.8641C13.8272 15.8641 13.9078 15.8329 13.9686 15.7736L15.8153 13.9261C15.9355 13.806 15.9355 13.6121 15.8153 13.4913C15.6952 13.3719 15.5006 13.3719 15.3812 13.4913H15.3805Z" fill="#D5D5D5"/>
<path d="M18.5 0C8.28254 0 0 8.28254 0 18.5C0 28.7175 8.28254 37 18.5 37C28.7175 37 37 28.7175 37 18.5C37 8.28254 28.7167 0 18.5 0ZM3.73908 9.9316H28.7578V11.8658H23.9155V21.4613H3.73908V9.9316ZM4.18384 24.0364H3.7847V21.8871H5.96823C5.05665 22.2132 4.35947 23.007 4.18765 24.009C4.18613 24.0181 4.18537 24.0273 4.18384 24.0364ZM6.89882 27.0676C5.46797 27.0676 4.30853 25.9075 4.30853 24.4774C4.30853 24.3268 4.32222 24.1801 4.34731 24.0364C4.55638 22.8177 5.61546 21.8909 6.89274 21.8871H6.9049C8.18218 21.8901 9.24202 22.8177 9.45109 24.0364C9.47542 24.1801 9.48911 24.3268 9.48911 24.4774C9.48911 25.9075 8.32968 27.0676 6.89882 27.0676ZM27.3535 27.0676C25.9234 27.0676 24.7632 25.9075 24.7632 24.4774C24.7632 23.0473 25.9227 21.8878 27.3535 21.8878C28.7844 21.8878 29.9438 23.0473 29.9438 24.4774C29.9438 25.9075 28.7844 27.0676 27.3535 27.0676ZM32.7181 22.6914C32.9028 22.7021 33.0762 22.7127 33.2609 22.7234C33.2609 23.1355 33.2495 23.5589 33.2495 23.971C32.2627 23.971 31.2758 23.971 30.2882 23.9604C29.9628 22.5287 28.5745 21.3792 27.0783 21.5959C25.7227 21.6719 24.7792 22.8329 24.399 24.0364H9.6138C9.61227 24.028 9.61075 24.0181 9.60999 24.009C9.43817 23.007 8.74099 22.2125 7.82941 21.8871H24.3664C24.3413 19.3637 24.3618 16.8373 24.3664 14.3146L24.3588 14.3078V12.4048L24.3671 12.4116V12.4086H24.3816C25.9166 12.398 27.4523 12.3873 28.9988 12.4086C28.9524 12.9895 29.0322 13.5483 29.1668 14.0987C29.3797 14.967 29.7302 15.8116 29.9423 16.6814C30.1476 17.1946 30.1301 17.9191 30.6676 18.2081C30.6988 18.2248 30.7315 18.2407 30.7664 18.2544C31.0295 18.3837 31.2941 18.5084 31.5586 18.6323C31.9388 18.8094 32.3197 18.9828 32.6968 19.1554C32.7401 20.3376 32.7074 21.5084 32.7188 22.6914H32.7181Z" fill="#D5D5D5"/>
</svg>
