<svg width="37" height="37" viewBox="0 0 37 37" fill="none" xmlns="http://www.w3.org/2000/svg">
<circle cx="18.5" cy="18.5" r="18.5" fill="#3D74A6"/>
<path d="M18.6675 14.4548C18.688 14.2168 18.7093 13.972 18.7093 13.7348C18.0661 13.7203 17.4236 13.728 16.7804 13.728C16.7667 13.972 16.7804 14.2237 16.8298 14.4616C17.4441 14.4685 18.0524 14.4753 18.6675 14.4548Z" fill="#D4D4D4"/>
<path d="M20.4019 17.2497C20.4718 17.0611 20.5136 16.8726 20.5554 16.6833C20.1365 16.6764 19.7168 16.6688 19.2911 16.6833C19.2698 16.8718 19.2629 17.068 19.2766 17.2634C19.6545 17.2634 20.0316 17.2778 20.4019 17.2497Z" fill="#D4D4D4"/>
<path d="M14.8047 16.6764C14.8328 16.8726 14.8815 17.068 14.9514 17.2565C15.378 17.271 15.8037 17.2634 16.2303 17.2565C16.2379 17.068 16.2242 16.8726 16.1816 16.6833C15.7201 16.6688 15.2662 16.6764 14.8047 16.6764Z" fill="#D4D4D4"/>
<path d="M20.7151 15.8873C20.8686 15.7269 20.8618 15.4471 20.9181 15.2304C20.4079 15.2304 19.8977 15.2091 19.3952 15.2372C19.3602 15.46 19.3465 15.6774 19.367 15.901C19.8141 15.901 20.2688 15.9146 20.7158 15.8865L20.7151 15.8873Z" fill="#D4D4D4"/>
<path d="M14.4402 15.2371C14.4752 15.4538 14.5238 15.6705 14.6006 15.8796C15.11 15.9282 15.621 15.9009 16.1304 15.894C16.1372 15.6773 16.1235 15.4675 16.0885 15.2508C15.5434 15.1953 14.9922 15.2295 14.4395 15.2371H14.4402Z" fill="#D4D4D4"/>
<path d="M18.5004 0C8.28271 0 0 8.28271 0 18.5004C0 28.7181 8.28271 37.0008 18.5004 37.0008C28.7181 37.0008 37.0008 28.7181 37.0008 18.5004C37.0008 8.28271 28.7173 0 18.5004 0ZM31.6787 24.9835H20.5752V28.5257H21.8738C22.6805 28.5173 23.5784 29.1932 23.7898 29.9733L24.0665 30.9336L24.116 31.2917C24.1076 31.8619 23.7244 32.2542 23.0599 32.2649H13.9644C13.287 32.258 12.8939 31.8528 12.8863 31.2734L12.9335 30.9267L13.1942 29.9756C13.395 29.2001 14.2708 28.5257 15.0737 28.5257H16.4263V24.9835H5.3221V7.70488H31.6779V24.9835H31.6787Z" fill="#D4D4D4"/>
<path d="M29.3327 9.90137H7.66797V22.9329H29.3327V9.90137ZM13.4835 12.9798C16.2502 12.9517 19.0109 12.973 21.7784 12.9661C22.0574 12.9312 22.2817 13.2391 22.1768 13.4976C21.7997 14.9163 21.4431 16.3343 21.0584 17.753C21.0166 17.9697 20.793 18.0533 20.5969 18.0389H14.7266C14.5244 18.0533 14.3077 17.9339 14.2727 17.718C13.9093 16.3274 13.5664 14.9224 13.2106 13.5318C13.1269 13.3151 13.225 13.0011 13.4835 12.9798ZM15.8937 21.1698C15.4398 21.2671 14.9509 20.9462 14.846 20.4923C14.7198 20.0521 15.0132 19.5557 15.4474 19.4158C15.9294 19.2272 16.5163 19.5701 16.6144 20.0727C16.7406 20.5547 16.384 21.0861 15.8944 21.1698H15.8937ZM20.2403 21.1835C19.7157 21.1903 19.2481 20.6672 19.3462 20.1426C19.388 19.7723 19.6952 19.4652 20.0517 19.3876C20.5763 19.2477 21.1344 19.6948 21.1488 20.2262C21.1838 20.7296 20.7436 21.1979 20.2403 21.1835ZM25.3974 13.211C24.7618 13.2801 24.1117 13.1965 23.4754 13.2528C22.9584 15.0904 22.4619 16.9281 21.9593 18.7733C21.9175 18.9892 21.7153 19.1504 21.4917 19.1223C19.0322 19.1154 16.5787 19.1291 14.1191 19.1154C13.6439 19.1291 13.6226 18.3605 14.1054 18.3536C16.4958 18.3323 18.8847 18.3681 21.2751 18.3392C21.8202 16.4878 22.2878 14.6084 22.8192 12.7487C22.861 12.5951 23.0078 12.4697 23.1758 12.4833C23.8951 12.4765 24.6158 12.4697 25.3351 12.4833C25.7053 12.5183 25.754 13.1053 25.3982 13.211H25.3974Z" fill="#D4D4D4"/>
<path d="M16.0332 14.4685C16.04 14.2237 16.0195 13.9865 15.9982 13.7493C15.355 13.7075 14.7126 13.7356 14.0625 13.728C14.1043 13.9797 14.1606 14.2313 14.2518 14.4617C14.8456 14.4754 15.4394 14.4685 16.0332 14.4685Z" fill="#D4D4D4"/>
<path d="M16.9768 16.6764C16.97 16.8726 16.9768 17.068 17.0255 17.2565C17.5083 17.2634 17.9896 17.2634 18.4724 17.2634C18.4868 17.0748 18.5628 16.8513 18.4792 16.6833C17.9827 16.6688 17.4733 16.6764 16.9768 16.6764Z" fill="#D4D4D4"/>
<path d="M16.879 15.2372C16.8714 15.4538 16.8858 15.6705 16.9139 15.8796C17.4659 15.9077 18.0316 15.9427 18.5767 15.8583C18.6048 15.6629 18.6117 15.4599 18.6117 15.2577C18.0384 15.1877 17.4515 15.2296 16.879 15.2364V15.2372Z" fill="#D4D4D4"/>
<path d="M21.1215 14.4617C21.212 14.2237 21.2683 13.9796 21.3101 13.7348C20.7019 13.7204 20.0944 13.7204 19.493 13.7348C19.4793 13.972 19.4017 14.2382 19.4793 14.4617C20.0244 14.4685 20.5764 14.4754 21.1215 14.4617Z" fill="#D4D4D4"/>
</svg>
