<svg width="17" height="28" viewBox="0 0 17 28" fill="none" xmlns="http://www.w3.org/2000/svg">
<g clip-path="url(#clip0_972_160)">
<path fill-rule="evenodd" clip-rule="evenodd" d="M13.52 14.1899C13.59 14.1899 13.66 14.1699 13.74 14.1699C14.61 14.1699 15.04 13.7299 15.05 12.8599C15.06 12.0099 15.44 11.3599 16.18 10.9099C16.92 10.4899 17.07 9.87993 16.66 9.11993C16.25 8.38993 16.25 7.61993 16.66 6.86993C17.08 6.11993 16.92 5.53993 16.18 5.07993C15.44 4.63993 15.06 3.99993 15.05 3.12993C15.04 2.27993 14.61 1.84993 13.74 1.82993C12.88 1.80993 12.24 1.43993 11.79 0.699934C11.36 -0.0400664 10.75 -0.210066 10.01 0.229934C9.25 0.639934 8.51 0.639934 7.75 0.229934C7 -0.200066 6.41 -0.0300664 5.97 0.699934C5.53 1.43993 4.89 1.81993 4.03 1.82993C3.17 1.83993 2.73 2.26993 2.72 3.12993C2.7 3.99993 2.33 4.63993 1.59 5.07993C0.85 5.52993 0.68 6.11993 1.12 6.86993C1.53 7.61993 1.53 8.37993 1.12 9.11993C0.69 9.87993 0.86 10.4899 1.59 10.9099C2.33 11.3599 2.71 12.0099 2.72 12.8599C2.72 13.4699 2.95 13.8599 3.36 14.0499L0 25.7099L3.97 22.6699L5.72 27.3499L8.44 17.9199L11.14 27.3499L12.89 22.6699L16.85 25.7099L13.53 14.1799L13.52 14.1899ZM8.88 4.91993L9.49 7.04993H11.49L9.88 8.35993L10.5 10.4899L8.89 9.16993L7.27 10.4899L7.89 8.35993L6.27 7.04993H8.27L8.89 4.91993H8.88ZM8.88 12.7099C6.29 12.7099 4.17 10.5999 4.17 7.99993C4.17 5.39993 6.29 3.28993 8.88 3.28993C11.47 3.28993 13.6 5.38993 13.6 7.99993C13.6 10.6099 11.49 12.7099 8.88 12.7099Z" fill="#3D74A6"/>
</g>
<defs>
<clipPath id="clip0_972_160">
<rect width="16.88" height="27.36" fill="white"/>
</clipPath>
</defs>
</svg>
