<svg width="85" height="81" viewBox="0 0 85 81" fill="none" xmlns="http://www.w3.org/2000/svg">
<mask id="mask0_997_136" style="mask-type:luminance" maskUnits="userSpaceOnUse" x="0" y="0" width="85" height="81">
<path d="M84.898 0H0V80.736H84.898V0Z" fill="white"/>
</mask>
<g mask="url(#mask0_997_136)">
<path d="M3.49869 56.0976C4.03857 59.8512 6.01677 63.4105 9.15032 64.8216C12.938 66.527 17.4259 64.8463 21.2523 62.7212C25.0787 60.5962 28.9091 57.9577 33.0899 57.6741C40.5695 57.1615 46.288 64.1869 53.4299 66.1554C55.8447 66.7704 58.3657 66.8427 60.8118 66.3672C63.2579 65.8917 65.5682 64.8801 67.5767 63.4052C83.2955 52.1728 77.6641 25.8783 65.7784 15.8897C56.1826 7.82535 42.2652 7.19997 30.5509 12.5172C19.3803 17.5899 10.1988 29.2882 5.74071 41.7531C5.39015 42.7317 5.06894 43.7154 4.77706 44.7042C3.54663 48.3681 3.11083 52.2521 3.49869 56.0976Z" fill="#EBEBEB"/>
<path d="M64.5392 4.50439L43.6533 25.9588C43.2721 26.2645 42.8178 26.4655 42.3353 26.5419C41.8527 26.6183 41.3585 26.5676 40.9016 26.3946L14.4022 12.4453C30.3739 9.79921 51.2282 6.51747 64.5392 4.50439ZM13.2622 14.0119L31.7928 25.534L17.7616 42.4198C16.2052 33.0216 14.5979 22.5795 13.2622 14.0119ZM66.1104 5.64159C67.5949 14.8801 69.3791 25.7296 70.6098 34.0495L52.0473 22.326L66.1104 5.64159ZM34.4463 28.2817C36.4343 29.4228 38.4633 30.6312 40.4435 31.7361C41.3305 32.019 42.2714 32.0906 43.191 31.9449C44.1106 31.7993 44.9834 31.4405 45.7395 30.8973C47.2983 29.2329 48.8415 27.4698 50.3757 25.7587L69.4689 35.6163C53.3148 38.2103 33.9608 41.2615 19.3318 43.5572L34.4463 28.2817Z" fill="#3D74A6"/>
</g>
</svg>
