<svg class="ico-outlet" width="20" height="20" viewBox="0 0 14 14" fill="#2C333A" style="width: 25px; height: 25px;" xmlns="http://www.w3.org/2000/svg">
<path d="M6.32 0h.09c.3 0 .55.13.8.3l.09.1 6.1 6.3.1.08c.2.26.29.57.29.92 0 .35-.09.66-.3.92l-.08.09-4.8 4.94-.08.09c-.26.22-.55.3-.9.3a1.3 1.3 0 01-.88-.3l-.09-.09-6.1-6.3-.1-.09a1.4 1.4 0 01-.29-.83V1.31C.17.96.34.66.55.44c.26-.27.51-.4.85-.4h4.92V0zM7.6 8.1c-.25.08-.5.26-.72.52-.25.26-.42.52-.5.74-.1.27-.1.48-.05.75.04.26.17.43.38.65.22.22.43.35.64.4.21.04.47.04.72-.05.26-.08.51-.26.72-.52.26-.27.43-.53.51-.75.09-.26.09-.48.04-.74-.04-.26-.17-.44-.38-.66a1.27 1.27 0 00-.63-.39 1.35 1.35 0 00-.73.04zm.85.87c.13.13.17.26.13.44-.04.17-.17.35-.38.6-.21.23-.43.36-.6.4-.17.05-.3 0-.42-.13-.25-.26-.13-.61.3-1.05.42-.44.72-.52.97-.26zm.98-2.8L4.28 8.18l.64.66 5.13-2.02-.63-.65zM6.28 3.85c-.26.09-.51.26-.72.52-.26.27-.43.53-.51.75a1.33 1.33 0 00.34 1.4c.21.22.42.35.63.4.22.04.47.04.73-.05.25-.09.5-.26.72-.53.25-.26.42-.52.5-.74.1-.26.1-.48.05-.74a1.33 1.33 0 00-.38-.66A1.27 1.27 0 007 3.8a1.38 1.38 0 00-.72.05zm.89.87c.13.14.17.27.13.44-.05.18-.17.35-.38.62-.22.26-.43.34-.6.39-.17.04-.3 0-.42-.13-.26-.27-.13-.61.3-1.05.38-.44.72-.53.97-.27zM2.59 1.4c-.3 0-.51.09-.72.3a.97.97 0 00-.3.75c0 .3.08.52.3.74.2.22.42.31.72.31s.5-.09.72-.3c.21-.23.3-.44.3-.75 0-.3-.09-.57-.3-.74a.98.98 0 00-.72-.31z"></path>
</svg>