<svg width="23" height="28" viewBox="0 0 23 28" fill="none" xmlns="http://www.w3.org/2000/svg">
<g clip-path="url(#clip0_996_110)">
<path fill-rule="evenodd" clip-rule="evenodd" d="M17.14 0L22.25 5.46C22.41 5.62 22.64 5.72 22.64 5.95C22.65 6.81 22.66 7.56 22.66 7.97C22.66 12.4 21.49 16.63 19.27 20.2C17.31 23.37 14.63 25.83 11.55 27.32C11.48 27.35 11.4 27.36 11.32 27.36C11.24 27.36 11.17 27.34 11.09 27.32C7.8 25.74 5.01 23.07 3.03 19.6C1.04 16.14 0 12.12 0 7.97C0 7.58 0 6.84 0.02 5.95L0.4 5.46C1.01 4.79 5.08 0 5.52 0H17.14ZM10.5 11.74L9.24 10.57C9.1 10.43 8.91 10.37 8.71 10.37C8.5 10.37 8.32 10.44 8.17 10.57L7.78 10.93C7.49 11.2 7.49 11.65 7.78 11.93L9.98 13.95C10.13 14.09 10.33 14.17 10.52 14.17C10.73 14.17 10.92 14.09 11.06 13.94L14.87 10.18C15.16 9.91 15.15 9.46 14.84 9.21L14.44 8.85C14.29 8.74 14.12 8.66 13.9 8.66C13.71 8.67 13.51 8.75 13.38 8.89L10.5 11.74ZM11.32 5.81C14.42 5.81 16.93 8.32 16.93 11.41C16.93 14.5 14.42 17.02 11.32 17.02C8.22 17.02 5.72 14.51 5.72 11.41C5.72 8.31 8.22 5.81 11.32 5.81Z" fill="#2C333A"/>
</g>
<defs>
<clipPath id="clip0_996_110">
<rect width="22.65" height="27.36" fill="white"/>
</clipPath>
</defs>
</svg>
