<svg width="85" height="81" viewBox="0 0 85 81" fill="none" xmlns="http://www.w3.org/2000/svg">
<g clip-path="url(#clip0_422_7)">
<path d="M3.49847 56.0976C4.03835 59.8512 6.01655 63.4105 9.1501 64.8216C12.9378 66.527 17.4257 64.8463 21.2521 62.7212C25.0785 60.5962 28.9089 57.9577 33.0897 57.6741C40.5693 57.1615 46.2878 64.1869 53.4297 66.1554C55.8445 66.7704 58.3655 66.8427 60.8116 66.3672C63.2577 65.8917 65.568 64.8801 67.5765 63.4052C83.2953 52.1728 77.6639 25.8783 65.7782 15.8897C56.1824 7.82534 42.265 7.19995 30.5507 12.5172C19.3801 17.5899 10.1986 29.2882 5.74049 41.7531C5.38993 42.7317 5.06872 43.7154 4.77684 44.7042C3.54641 48.3681 3.11061 52.2521 3.49847 56.0976V56.0976Z" fill="#EBEBEB"/>
<path d="M64.539 4.5045L43.6531 25.9589C43.2719 26.2646 42.8176 26.4656 42.3351 26.542C41.8525 26.6184 41.3583 26.5677 40.9014 26.3947L14.402 12.4454C30.3737 9.79932 51.228 6.51758 64.539 4.5045ZM13.262 14.012L31.7926 25.5341L17.7614 42.4199C16.205 33.0217 14.5977 22.5796 13.262 14.012V14.012ZM66.1102 5.6417C67.5947 14.8802 69.3789 25.7297 70.6096 34.0496L52.0471 22.3261L66.1102 5.6417ZM34.4461 28.2818C36.4341 29.4229 38.4631 30.6313 40.4433 31.7362C41.3303 32.0191 42.2712 32.0907 43.1908 31.945C44.1104 31.7994 44.9832 31.4406 45.7393 30.8974C47.2981 29.233 48.8413 27.4699 50.3755 25.7588L69.4687 35.6164C53.3146 38.2104 33.9606 41.2616 19.3316 43.5573L34.4461 28.2818Z" fill="#0088CC"/>
</g>
<defs>
<clipPath id="clip0_422_7">
<rect width="84.898" height="80.736" fill="white"/>
</clipPath>
</defs>
</svg>
