<svg width="28" height="28" viewBox="0 0 28 28" fill="none" xmlns="http://www.w3.org/2000/svg">
<g clip-path="url(#clip0_1010_110)">
<path fill-rule="evenodd" clip-rule="evenodd" d="M18.7 0.93H13.91V0.63C13.91 0.3 13.61 0 13.24 0H6.98C6.61 0 6.31 0.3 6.31 0.63V0.93H1.5C0.67 0.93 0 1.56 0 2.32V25.3C0 26.08 0.67 26.69 1.5 26.69H18.7C19.53 26.69 20.2 26.08 20.2 25.3V2.32C20.2 1.56 19.53 0.93 18.7 0.93ZM24.72 27C24.62 27.21 24.41 27.35 24.17 27.35C23.93 27.35 23.72 27.21 23.61 27.01L21.29 22.26L27.01 22.23L24.72 27ZM27.01 21.48H21.3L21.26 7.98H26.97L27.01 21.48ZM26.97 5.8H21.25V7.37H26.97V5.8ZM22.48 1.87H25.73C26.41 1.86 26.96 2.4 26.96 3.08L26.98 5.21L21.27 5.23V3.11C21.26 2.79 21.38 2.47 21.61 2.23C21.84 2.01 22.16 1.87 22.48 1.87ZM5.55 15.41H15.51C15.66 15.41 15.78 15.53 15.78 15.69V16.69C15.78 16.84 15.66 16.96 15.51 16.96H5.55C5.4 16.96 5.28 16.84 5.28 16.69V15.69C5.28 15.54 5.4 15.41 5.55 15.41ZM5.55 18.78H15.51C15.66 18.78 15.78 18.9 15.78 19.06V20.06C15.78 20.21 15.66 20.33 15.51 20.33H5.55C5.4 20.33 5.28 20.21 5.28 20.06V19.06C5.28 18.91 5.4 18.78 5.55 18.78ZM5.98 10.95H7.19V13.21H5.98V10.95ZM9.3 8.61L11.74 10.18L15.11 7.74L14.76 7.25L11.71 9.46L9.32 7.92L5.09 10.1L5.36 10.63L9.29 8.61H9.3ZM13.25 9.9H14.45V13.22H13.25V9.9ZM10.98 10.95H12.18V13.21H10.98V10.95ZM8.55 9.9H9.76V13.22H8.55V9.9ZM18.56 25.15H1.66V2.48H6.31V2.67C6.31 3.01 6.61 3.3 6.98 3.3H13.25C13.62 3.3 13.92 3.02 13.92 2.67V2.48H18.56V25.14V25.15Z" fill="#2C333A"/>
</g>
<defs>
<clipPath id="clip0_1010_110">
<rect width="27.02" height="27.36" fill="white"/>
</clipPath>
</defs>
</svg>
