<svg width="20" height="31" viewBox="0 0 20 31" fill="none" xmlns="http://www.w3.org/2000/svg">
<g clip-path="url(#clip0_1039_174)">
<path fill-rule="evenodd" clip-rule="evenodd" d="M16.019 16.0779C16.1019 16.0779 16.1848 16.0552 16.2796 16.0552C17.3104 16.0552 17.8199 15.5567 17.8318 14.5709C17.8436 13.6079 18.2938 12.8714 19.1706 12.3615C20.0474 11.8856 20.2251 11.1945 19.7393 10.3334C19.2536 9.50625 19.2536 8.63381 19.7393 7.78403C20.237 6.93425 20.0474 6.27708 19.1706 5.75588C18.2938 5.25735 17.8436 4.5322 17.8318 3.54645C17.8199 2.58337 17.3104 2.09616 16.2796 2.0735C15.2607 2.05084 14.5024 1.63161 13.9692 0.793164C13.4597 -0.0452859 12.737 -0.237903 11.8602 0.260635C10.9597 0.725182 10.0829 0.725182 9.18246 0.260635C8.29384 -0.226572 7.59479 -0.0339555 7.07346 0.793164C6.55213 1.63161 5.79384 2.06217 4.77488 2.0735C3.75592 2.08483 3.2346 2.57204 3.22275 3.54645C3.19905 4.5322 2.76066 5.25735 1.88389 5.75588C1.00711 6.26575 0.805687 6.93425 1.32701 7.78403C1.8128 8.63381 1.8128 9.49492 1.32701 10.3334C0.817536 11.1945 1.01896 11.8856 1.88389 12.3615C2.76066 12.8714 3.2109 13.6079 3.22275 14.5709C3.22275 15.2621 3.49526 15.704 3.98104 15.9193L0 29.1305L4.70379 25.6861L6.77725 30.9887L10 20.3041L13.1991 30.9887L15.2725 25.6861L19.9645 29.1305L16.0308 16.0666L16.019 16.0779ZM10.5213 5.5746L11.2441 7.98797H13.6137L11.7062 9.47226L12.4408 11.8856L10.5332 10.39L8.61374 11.8856L9.34834 9.47226L7.42891 7.98797H9.79858L10.5332 5.5746H10.5213ZM10.5213 14.401C7.45261 14.401 4.94076 12.0103 4.94076 9.06436C4.94076 6.11846 7.45261 3.72774 10.5213 3.72774C13.59 3.72774 16.1137 6.10713 16.1137 9.06436C16.1137 12.0216 13.6137 14.401 10.5213 14.401Z" fill="#2C333A"/>
</g>
<defs>
<clipPath id="clip0_1039_174">
<rect width="20" height="31" fill="white"/>
</clipPath>
</defs>
</svg>
