<svg width="20" height="27" viewBox="0 0 20 27" fill="none" xmlns="http://www.w3.org/2000/svg">
<path d="M3.28446 27H16.7155C18.915 27 20 25.9674 20 23.7231V14.2366C20 12.2815 19.1642 11.2489 17.4633 11.0286V7.69658C17.4633 2.50586 13.8416 0 10 0C6.15836 0 2.53666 2.50586 2.53666 7.69658V11.0286C0.835777 11.2489 0 12.2815 0 14.2366V23.7231C0 25.9674 1.08504 27 3.28446 27ZM4.89736 7.40745C4.89736 3.95156 7.25806 2.12035 10 2.12035C12.7419 2.12035 15.1026 3.95156 15.1026 7.40745V10.9873H4.89736V7.40745ZM3.37243 24.9347C2.69795 24.9347 2.3607 24.6456 2.3607 23.8746V14.0989C2.3607 13.3279 2.69795 13.0525 3.37243 13.0525H16.6422C17.3167 13.0525 17.6393 13.3279 17.6393 14.0989V23.8746C17.6393 24.6456 17.3167 24.9347 16.6422 24.9347H3.37243Z" fill="#2C333A"/>
</svg>
