<svg width="28" height="24" viewBox="0 0 28 24" fill="none" xmlns="http://www.w3.org/2000/svg">
<g clip-path="url(#clip0_971_154)">
<path fill-rule="evenodd" clip-rule="evenodd" d="M27.36 10.3V12.01C27.36 12.95 26.6 13.71 25.65 13.71L23.93 23.98H3.41L1.7 13.71C0.76 13.71 0 12.95 0 12.01V10.3C0 9.35 0.76 8.58 1.7 8.58H4.01L7.98 0.99C8.09 0.79 8.31 0.65 8.56 0.65H10.49C10.49 0.29 10.78 0 11.14 0H16.3C16.66 0 16.95 0.29 16.95 0.65H18.89C19.14 0.65 19.36 0.79 19.47 0.99L23.25 8.58H25.65C26.6 8.58 27.36 9.34 27.36 10.3ZM5.45 8.58H21.8L18.48 1.93H16.94C16.94 2.29 16.65 2.58 16.29 2.58H11.13C10.77 2.58 10.48 2.29 10.48 1.93H8.95L5.44 8.58H5.45ZM8.23 15.12H8.47C8.77 15.12 9.02 15.37 9.02 15.68V21.38C9.02 21.68 8.77 21.93 8.47 21.93H8.23C7.92 21.93 7.68 21.68 7.68 21.38V15.68C7.68 15.37 7.93 15.12 8.23 15.12ZM18.89 15.12H19.14C19.45 15.12 19.7 15.37 19.7 15.68V21.38C19.7 21.68 19.45 21.93 19.14 21.93H18.89C18.58 21.93 18.34 21.68 18.34 21.38V15.68C18.34 15.37 18.59 15.12 18.89 15.12ZM15.34 15.12H15.59C15.89 15.12 16.14 15.37 16.14 15.68V21.38C16.14 21.68 15.89 21.93 15.59 21.93H15.34C15.04 21.93 14.79 21.68 14.79 21.38V15.68C14.79 15.37 15.04 15.12 15.34 15.12ZM11.79 15.12H12.04C12.34 15.12 12.58 15.37 12.58 15.68V21.38C12.58 21.68 12.34 21.93 12.04 21.93H11.79C11.48 21.93 11.24 21.68 11.24 21.38V15.68C11.24 15.37 11.49 15.12 11.79 15.12Z" fill="#3D74A6"/>
</g>
<defs>
<clipPath id="clip0_971_154">
<rect width="27.36" height="23.98" fill="white"/>
</clipPath>
</defs>
</svg>
