<svg width="44" height="43" viewBox="0 0 44 43" fill="none" xmlns="http://www.w3.org/2000/svg">
<path d="M42.3275 13.3118C39.9313 7.55958 34.9941 3.04898 28.8991 1.08443C26.7281 0.361477 24.4123 0 22 0C19.5877 0 17.2558 0.361477 15.1009 1.08443C13.2193 1.69737 11.4503 2.54605 9.80994 3.59905L7.96053 1.76023C7.63889 1.46162 7.10819 1.46162 6.78655 1.76023L2.28363 6.16082C1.94591 6.47515 1.94591 6.96235 2.28363 7.2924L4.06871 9.03692C3.1038 10.3571 2.28363 11.8187 1.62427 13.3118C0.578947 15.8578 0 18.5925 0 21.4843C0 24.3761 0.578947 27.1265 1.62427 29.6568C4.92105 37.4836 12.7851 43 21.9839 43C31.1827 43 39.0307 37.4836 42.3114 29.6568C43.3889 27.1422 43.9839 24.4075 43.9839 21.4843C43.9839 18.561 43.3889 15.8578 42.3114 13.3118H42.3275ZM22.9488 15.3706C22.4503 15.3706 22.0804 15.7321 22.0804 16.2036V22.2858H16.5804C16.098 22.2858 15.712 22.6473 15.712 23.1031C15.712 23.5903 16.0819 23.9518 16.5804 23.9518H22.9327C23.3991 23.9518 23.7851 23.5903 23.7851 23.1031V16.1879C23.7851 15.7321 23.3991 15.3549 22.9327 15.3549L22.9488 15.3706ZM22 6.77376C30.2661 6.77376 36.9561 13.3118 36.9561 21.3743C36.9561 29.4368 30.25 35.9748 22 35.9748C13.75 35.9748 7.04386 29.4368 7.04386 21.3743C7.04386 13.3118 13.7339 6.77376 21.9839 6.77376H22ZM33.2091 21.3743C33.2091 20.8713 33.6111 20.4784 34.1257 20.4784H35.7661C35.6374 18.6711 35.1711 16.958 34.383 15.4335L32.9518 16.2193C32.807 16.2979 32.6462 16.345 32.4854 16.345C32.1637 16.345 31.8582 16.1879 31.6813 15.8893C31.4401 15.4806 31.6009 14.9148 32.019 14.6791L33.4503 13.8776C32.4532 12.4002 31.1667 11.1586 29.6711 10.1685L28.8348 11.583C28.674 11.8659 28.3684 12.0387 28.0629 12.0387C27.902 12.0387 27.7251 11.9916 27.5965 11.913C27.1462 11.6773 27.0015 11.1115 27.2588 10.7029L28.0789 9.30409C26.5029 8.54971 24.7661 8.0625 22.9167 7.93677V9.53984C22.9167 10.0428 22.4825 10.4514 21.9839 10.4514C21.4854 10.4514 21.0673 10.0428 21.0673 9.53984V7.93677C18.7032 8.09393 15.2617 8.18823 16.7251 10.6714C16.9664 11.1115 16.8056 11.6773 16.3713 11.913C15.9532 12.1488 15.3743 12.023 15.133 11.583L14.3129 10.1685C12.8173 11.1429 11.5307 12.4159 10.5336 13.8776L11.9488 14.6791C12.3991 14.9148 12.5599 15.4806 12.2865 15.8893C12.1257 16.1879 11.8202 16.345 11.4825 16.345C11.3216 16.345 11.1608 16.2979 11.0322 16.2193L9.61696 15.4335C8.82895 16.958 8.34649 18.6711 8.23392 20.4784H9.85819C10.3728 20.4784 10.7909 20.8713 10.7909 21.3743C10.7909 21.8772 10.3728 22.2701 9.85819 22.2701H8.23392C8.34649 24.0775 8.82895 25.7906 9.61696 27.3308L11.0322 26.5292C11.4503 26.2621 12.0292 26.4192 12.2705 26.8436C12.5278 27.2836 12.383 27.818 11.9327 28.0694L10.5175 28.9024C11.8363 30.8198 13.6535 33.6802 15.133 31.1813C15.3743 30.7412 15.9532 30.6155 16.3713 30.8512C16.8056 31.1027 16.9664 31.6528 16.7251 32.0771L15.905 33.4759C17.481 34.2145 19.2178 34.686 21.0673 34.8275V33.2244C21.0673 32.7215 21.4532 32.3129 21.9839 32.3129C22.5146 32.3129 22.9167 32.7215 22.9167 33.2244V34.8275C24.75 34.7018 26.4868 34.2303 28.0789 33.4759L27.2588 32.0771C27.0015 31.6528 27.1462 31.087 27.5965 30.8512C28.0468 30.6155 28.5936 30.7412 28.8348 31.1813L29.6711 32.5958C31.1667 31.6213 32.4532 30.364 33.4503 28.9024L32.019 28.0694C31.6009 27.8337 31.4401 27.2836 31.6813 26.8436C31.9547 26.4035 32.5015 26.2621 32.9518 26.5292L34.383 27.3308C35.1711 25.7906 35.6374 24.0775 35.7661 22.2701H34.1257C33.6111 22.2701 33.2091 21.8772 33.2091 21.3743ZM39.6257 29.7197C36.5058 36.1477 29.7836 40.564 22 40.5797C14.2164 40.564 7.52632 36.1477 4.35819 29.7197C3.15205 27.2208 2.46053 24.439 2.46053 21.4843C2.46053 18.5296 3.15205 15.7792 4.35819 13.2646C6.52924 8.8326 10.3889 5.35928 15.117 3.61477C17.2558 2.82895 19.5877 2.37317 22.0161 2.37317C24.4444 2.37317 26.7602 2.82895 28.9152 3.61477C33.6272 5.34357 37.4547 8.8326 39.6257 13.2646C40.8801 15.7635 41.5395 18.5453 41.5395 21.4843C41.5395 24.4232 40.8801 27.2208 39.6257 29.7197Z" fill="#3D74A6"/>
</svg>
