<svg width="17" height="12" viewBox="0 0 17 12" fill="none" xmlns="http://www.w3.org/2000/svg">
<g clip-path="url(#clip0_489_9)">
<path d="M2.77536 12H14.442C15.7464 12 16.5 11.2757 16.5 9.84094V2.15206C16.5 0.724318 15.7391 0 14.2246 0H2.55797C1.25362 0 0.5 0.717353 0.5 2.15206V9.84094C0.5 11.2827 1.26087 12 2.77536 12ZM7.63768 6.35171L2.16667 1.16309C2.32609 1.10041 2.51449 1.06558 2.73188 1.06558H14.2681C14.4927 1.06558 14.6884 1.10041 14.8478 1.17005L9.39129 6.35171C9.07971 6.65119 8.7971 6.78351 8.51449 6.78351C8.22464 6.78351 7.94203 6.64423 7.63768 6.35171ZM1.60869 9.84094V2.15206C1.60869 2.09634 1.60869 2.12421 1.60869 2.07545L5.77536 6.01045L1.61594 9.9594C1.60869 9.92451 1.60869 9.88277 1.60869 9.84094ZM15.3913 2.15902V9.84797C15.3913 9.87583 15.3913 9.91063 15.3913 9.93849L11.2536 6.01045L15.3913 2.09634C15.3913 2.15902 15.3913 2.15902 15.3913 2.15902ZM2.73188 10.9344C2.52899 10.9344 2.35508 10.9065 2.2029 10.8439L6.53623 6.7278L7.00724 7.17353C7.51449 7.65409 8 7.85607 8.51449 7.85607C9.02174 7.85607 9.51449 7.65409 10.0218 7.17353L10.4927 6.7278L14.8188 10.8369C14.6594 10.9065 14.4782 10.9344 14.2681 10.9344H2.73188Z" fill="#D0D0D0"/>
</g>
<defs>
<clipPath id="clip0_489_9">
<rect width="16" height="12" fill="white" transform="translate(0.5)"/>
</clipPath>
</defs>
</svg>
