<svg width="25" height="27" viewBox="0 0 25 27" fill="none" xmlns="http://www.w3.org/2000/svg">
<g clip-path="url(#clip0_986_120)">
<path fill-rule="evenodd" clip-rule="evenodd" d="M23.3333 0H3.34308C2.41715 0 1.65692 0.759868 1.65692 1.67763V5.05263H4.16179C4.62963 5.05263 4.99025 5.4375 4.99025 5.89145C4.99025 6.34539 4.61988 6.74013 4.16179 6.74013H0.838207C0.37037 6.74013 0 7.125 0 7.57895C0 8.03289 0.37037 8.42763 0.838207 8.42763H1.65692V11.8026H4.16179C4.62963 11.8026 4.99025 12.1875 4.99025 12.6513C4.99025 13.1151 4.61988 13.5 4.16179 13.5H0.838207C0.37037 13.5 0 13.8849 0 14.3388C0 14.7928 0.37037 15.1875 0.838207 15.1875H1.65692V18.5625H4.16179C4.62963 18.5625 4.99025 18.9474 4.99025 19.4112C4.99025 19.875 4.61988 20.25 4.16179 20.25H0.838207C0.37037 20.25 0 20.6349 0 21.0987C0 21.5625 0.37037 21.9375 0.838207 21.9375H1.65692V25.3125C1.65692 26.2303 2.41715 27 3.32359 27H23.3333C24.2593 27 25 26.2303 25 25.3125V1.67763C25 0.759868 24.2593 0 23.3333 0ZM17.1735 11.7928C16.0721 12.6908 15.77 12.2368 15.2632 11.7434C14.9123 11.3882 14.0448 12.1283 13.2651 12.8882C12.5049 13.6678 11.7739 14.5658 12.1345 14.9112C12.6316 15.4243 13.0702 15.7303 12.1832 16.8454C11.2963 17.9704 10.7115 17.1118 10.2242 16.6184C9.65887 16.0559 10.1852 13.9441 12.2417 11.8618C14.2982 9.77961 16.384 9.23684 16.9396 9.81908C17.4366 10.3026 18.2749 10.9046 17.1637 11.8026L17.1735 11.7928ZM13.8596 6.30592C17.7875 6.30592 20.9747 9.51316 20.9747 13.5C20.9747 17.4868 17.7875 20.6941 13.8596 20.6941C9.93177 20.6941 6.75439 17.4671 6.75439 13.5C6.75439 9.53289 9.93177 6.30592 13.8596 6.30592Z" fill="#2C333A"/>
</g>
<defs>
<clipPath id="clip0_986_120">
<rect width="25" height="27" fill="white"/>
</clipPath>
</defs>
</svg>
