<svg width="12" height="16" viewBox="0 0 12 16" fill="none" xmlns="http://www.w3.org/2000/svg">
<g clip-path="url(#clip0_1040_187)">
<path fill-rule="evenodd" clip-rule="evenodd" d="M11.9941 4.90057C11.9181 4.5497 11.7543 4.22221 11.4851 3.95321L8.05656 0.532152C7.77572 0.245603 7.41882 0.070164 7.05607 0.0116845H7.04437L7.01511 -0.00585938H1.843C0.824963 -1.14222e-05 0 0.82455 0 1.83625V14.2515C0.0643588 15.2047 0.865919 16 1.843 16H10.1628C11.1809 16 12 15.1754 12 14.1637V4.90057H11.9941ZM7.55924 1.75437L10.2155 4.41519H8.20283C7.84593 4.41519 7.56509 4.1228 7.56509 3.76607V1.75437H7.55924ZM9.05705 12.3099H2.94881C2.75573 12.3099 2.60361 12.462 2.60361 12.655V13.5789C2.60361 13.7661 2.75573 13.9181 2.94881 13.9181H9.05705C9.24427 13.9181 9.40809 13.7661 9.40809 13.5789V12.655C9.40809 12.462 9.24427 12.3099 9.05705 12.3099ZM9.05705 7.26315H2.94881C2.75573 7.26315 2.60361 7.42689 2.60361 7.61402V8.53215C2.60361 8.72513 2.75573 8.87718 2.94881 8.87718H9.05705C9.24427 8.87718 9.40809 8.72513 9.40809 8.53215V7.61402C9.40809 7.42689 9.24427 7.26315 9.05705 7.26315ZM9.05705 9.78361H2.94881C2.75573 9.78361 2.60361 9.93566 2.60361 10.1286V11.0526C2.60361 11.2398 2.75573 11.3976 2.94881 11.3976H9.05705C9.24427 11.3976 9.40809 11.2339 9.40809 11.0526V10.1286C9.40809 9.93566 9.24427 9.78361 9.05705 9.78361Z" fill="#2C333A"/>
</g>
<defs>
<clipPath id="clip0_1040_187">
<rect width="12" height="16" fill="white"/>
</clipPath>
</defs>
</svg>
