<svg width="14" height="13" viewBox="0 0 14 13" fill="none" xmlns="http://www.w3.org/2000/svg">
<path d="M5.90069 9.89953C6.95858 9.89953 7.94636 9.58706 8.74934 9.06628L11.77 11.809C11.9102 11.9363 12.0951 12 12.2862 12C12.7005 12 13 11.7107 13 11.3403C13 11.1668 12.9363 11.0047 12.7961 10.8774L9.79448 8.14624C10.4254 7.394 10.8014 6.46239 10.8014 5.44976C10.8014 3.0021 8.59639 1 5.90069 1C3.19862 1 1 3.0021 1 5.44976C1 7.89742 3.19862 9.89953 5.90069 9.89953ZM5.90069 8.93898C3.79129 8.93898 2.05789 7.35928 2.05789 5.44976C2.05789 3.54024 3.79129 1.96055 5.90069 1.96055C8.00372 1.96055 9.74349 3.54024 9.74349 5.44976C9.74349 7.35928 8.00372 8.93898 5.90069 8.93898Z" fill="#0088CC" stroke="#0088CC"/>
</svg>
