<svg width="24" height="27" viewBox="0 0 24 27" fill="none" xmlns="http://www.w3.org/2000/svg">
<g clip-path="url(#clip0_971_148)">
<path fill-rule="evenodd" clip-rule="evenodd" d="M11.3925 9.8092C11.1404 10.1645 10.9456 10.5296 10.8195 10.9145C10.0401 13.2237 11.1404 15.7697 13.6848 17.0131C14.0974 17.2303 14.5215 17.3783 14.9685 17.5164C15.4957 17.6349 16 17.7138 16.5272 17.7138L19.702 25.8059C19.9312 26.3585 20.4585 26.7434 21.0544 26.9112C21.4441 27.0296 21.8567 27.0296 22.2808 26.8816L22.6361 26.8026C23.2779 26.6151 23.7364 26.171 23.9198 25.648C24.0229 25.3125 24.0573 24.9276 23.8968 24.5921L20.7106 16.4704C21.2607 16.0855 21.6963 15.6118 22.0516 15.0592C22.3037 14.6941 22.4986 14.3388 22.6361 13.9539C23.4155 11.6447 22.3152 9.09867 19.7708 7.84538C19.3467 7.62828 18.9341 7.46051 18.4871 7.35196C15.8052 6.6513 12.8481 7.62828 11.3925 9.81907V9.8092ZM4.36676 7.73683H10.957C11.0372 7.73683 11.1175 7.76643 11.1633 7.82565C11.2206 7.86512 11.255 7.9342 11.255 8.00328V8.9013C11.255 8.96051 11.2206 9.03946 11.1633 9.07893C11.1175 9.12828 11.0372 9.14801 10.957 9.14801H4.36676C4.27507 9.14801 4.2063 9.12828 4.149 9.07893C4.10315 9.03946 4.05731 8.96051 4.05731 8.9013V8.00328C4.05731 7.94407 4.09169 7.86512 4.149 7.82565C4.2063 7.7763 4.27507 7.73683 4.36676 7.73683ZM4.36676 16.2039H10.5215C10.6017 16.2039 10.6819 16.2335 10.7393 16.2928C10.7851 16.3322 10.8195 16.3914 10.8195 16.4704V17.3585C10.8195 17.4276 10.7851 17.5066 10.7393 17.546C10.6819 17.5954 10.6017 17.6151 10.5215 17.6151H4.36676C4.27507 17.6151 4.2063 17.5954 4.149 17.546C4.10315 17.5066 4.05731 17.4276 4.05731 17.3585V16.4704C4.05731 16.4013 4.09169 16.3322 4.149 16.2928C4.2063 16.2434 4.27507 16.2039 4.36676 16.2039ZM4.36676 13.3914H9.76504C9.84527 13.3914 9.9255 13.421 9.97135 13.4605C10.0287 13.5197 10.063 13.5789 10.063 13.648V14.5362C10.063 14.6053 10.0287 14.6743 9.97135 14.7237C9.9255 14.7631 9.84527 14.7928 9.76504 14.7928H4.36676C4.27507 14.7928 4.2063 14.7631 4.149 14.7237C4.10315 14.6743 4.05731 14.6053 4.05731 14.5362V13.648C4.05731 13.5789 4.09169 13.5099 4.149 13.4605C4.2063 13.421 4.27507 13.3914 4.36676 13.3914ZM4.36676 10.5691H9.76504C9.84527 10.5691 9.9255 10.5987 9.97135 10.648C10.0287 10.6974 10.063 10.7664 10.063 10.8355V11.7237C10.063 11.7928 10.0287 11.8618 9.97135 11.9013C9.9255 11.9506 9.84527 11.9803 9.76504 11.9803H4.36676C4.27507 11.9803 4.2063 11.9506 4.149 11.9013C4.10315 11.8618 4.05731 11.7928 4.05731 11.7237V10.8355C4.05731 10.7664 4.09169 10.6974 4.149 10.648C4.2063 10.6085 4.27507 10.5691 4.36676 10.5691ZM12.2636 11.2599C12.9398 9.17762 15.4842 7.9638 17.9026 8.57564C20.3209 9.14801 21.7307 11.3388 21.0201 13.421C20.3553 15.5033 17.8109 16.7171 15.3925 16.1151C12.9742 15.5329 11.5645 13.3421 12.2636 11.2599ZM7.83954 3.66117C7.48424 3.66117 7.19771 3.81907 7.19771 4.04604V4.78617H16.2751V4.04604C16.2751 3.81907 15.9885 3.66117 15.6332 3.66117H13.7077V0.552619C11.702 -0.671065 9.7765 0.523014 9.7765 0.523014V3.66117H7.83954ZM23.553 2.7138V17.398L23.5186 21.4539C23.5186 21.6513 23.4613 21.8388 23.3582 21.9868L21.2378 16.5789C21.7192 16.1941 22.1318 15.7401 22.4642 15.2467C22.7163 14.8914 22.9112 14.477 23.0487 14.0526L23.0716 14.0329C23.7822 11.921 23.0029 9.70065 21.2034 8.25986V4.2138C21.2034 4.06578 21.1461 3.96709 21.043 3.87828C20.9169 3.75986 20.7908 3.73025 20.6189 3.73025H16.3438C16.1834 3.57236 15.8968 3.49341 15.6332 3.49341H13.9026V1.71709H22.3725C22.7278 1.71709 22.9799 1.80591 23.2092 1.99341C23.4269 2.19078 23.5645 2.44736 23.5645 2.7138H23.553ZM17.8911 22.4803H1.19198C0.836676 22.4803 0.573066 22.3816 0.355301 22.1743C0.126074 21.9868 0 21.7401 0 21.4539L0.0229226 16.9145V2.7138C0.0229226 2.43749 0.160458 2.19078 0.378223 1.99341C0.60745 1.80591 0.859599 1.71709 1.2149 1.71709H9.59312V3.49341H7.83954C7.62178 3.49341 7.33524 3.58222 7.17478 3.73025H2.92264C2.79656 3.73025 2.6361 3.75986 2.53295 3.87828C2.44126 3.96709 2.37249 4.06578 2.37249 4.2138V17.398L2.33811 19.9539C2.33811 20.0921 2.40688 20.2006 2.51003 20.3092C2.6361 20.3881 2.76218 20.4474 2.92264 20.4474H17.0888L17.9026 22.4704L17.8911 22.4803Z" fill="#3D74A6"/>
</g>
<defs>
<clipPath id="clip0_971_148">
<rect width="24" height="27" fill="white"/>
</clipPath>
</defs>
</svg>
