<svg width="25" height="27" viewBox="0 0 25 27" fill="none" xmlns="http://www.w3.org/2000/svg">
<path fill-rule="evenodd" clip-rule="evenodd" d="M8.60305 21.9474C7.31433 21.9474 6.2541 23.0724 6.2541 24.4638C6.2541 25.8553 7.31433 27 8.60305 27C9.89178 27 10.952 25.875 10.952 24.4638C10.952 23.0526 9.89178 21.9474 8.60305 21.9474ZM24.2231 0H20.3204C19.9365 0 19.6166 0.305921 19.5526 0.700658L19.0956 3.38487H0.788455C0.532538 3.38487 0.285761 3.52303 0.139523 3.75C-0.0158548 3.99671 -0.0432745 4.28289 0.0664041 4.54934L3.97827 14.6743C4.08795 14.9901 4.38043 15.1974 4.70032 15.1974H17.1123L16.5456 18.5625H6.2541C5.82453 18.5625 5.48635 18.9474 5.48635 19.4112C5.48635 19.875 5.82453 20.2599 6.2541 20.2599H17.1854C17.5693 20.2599 17.8892 19.9737 17.9532 19.5592L20.9602 1.69737H24.214C24.6435 1.69737 25 1.33224 25 0.848684C25 0.365132 24.6527 0 24.214 0H24.2231ZM14.8547 21.9474C13.5569 21.9474 12.5058 23.0724 12.5058 24.4638C12.5058 25.8553 13.5569 27 14.8547 27C16.1526 27 17.1945 25.875 17.1945 24.4638C17.1945 23.0526 16.1435 21.9474 14.8547 21.9474Z" fill="#383838"/>
</svg>
