<svg width="17" height="18" viewBox="0 0 17 18" fill="none" xmlns="http://www.w3.org/2000/svg">
<g clip-path="url(#clip0_489_13)">
<path d="M12.637 18C14.158 18 15.1575 17.5675 16.0353 16.5184C16.1048 16.4448 16.1743 16.362 16.2352 16.2884C16.7566 15.6718 17 15.0645 17 14.4847C17 13.8221 16.635 13.2056 15.8615 12.635L13.3323 10.7762C12.5501 10.2056 11.6375 10.1412 10.9075 10.905L10.2382 11.6136C10.0383 11.8252 9.86452 11.8344 9.67331 11.7056C9.20399 11.3927 8.25665 10.5185 7.6135 9.83753C6.93558 9.12895 6.28374 8.33755 5.93609 7.7578C5.82311 7.54615 5.8318 7.3713 6.0317 7.15965L6.69223 6.45107C7.42229 5.67807 7.36145 4.70262 6.8226 3.88362L5.06697 1.20574C4.52812 0.386728 3.94581 0.00943235 3.32004 0.000230016C2.77249 -0.00897232 2.19888 0.257895 1.61656 0.810036C1.53834 0.883654 1.46881 0.948071 1.39928 1.01249C0.408487 1.95113 0 3.00939 0 4.6014C0 7.23327 1.52965 10.4357 4.33691 13.408C7.12679 16.362 10.16 18 12.637 18ZM12.6457 16.5828C10.4294 16.6289 7.58742 14.8252 5.3364 12.451C3.068 10.0584 1.2863 6.94799 1.32975 4.6014C1.34714 3.58914 1.68609 2.71492 2.36401 2.08916C2.42485 2.03395 2.4683 1.98793 2.52914 1.94192C2.78988 1.70266 3.068 1.57383 3.32004 1.57383C3.57209 1.57383 3.79806 1.67506 3.96319 1.95113L5.64928 4.629C5.8318 4.91428 5.84918 5.23636 5.57975 5.52163L4.81493 6.33144C4.21524 6.9664 4.25869 7.73939 4.69325 8.35595C5.18865 9.06453 6.04908 10.0952 6.7183 10.7946C7.37883 11.5031 8.43047 12.497 9.10838 13.0307C9.6907 13.4909 10.4208 13.5369 11.0204 12.9019L11.7853 12.0921C12.0547 11.8068 12.3502 11.8252 12.6283 12.0093L15.1575 13.7945C15.4182 13.9786 15.5138 14.2086 15.5138 14.4847C15.5138 14.7516 15.3921 15.046 15.1662 15.3221C15.114 15.3865 15.0792 15.4325 15.0271 15.497C14.4361 16.2147 13.6104 16.5644 12.6457 16.5828Z" fill="#5D7079"/>
</g>
<defs>
<clipPath id="clip0_489_13">
<rect width="17" height="18" fill="white"/>
</clipPath>
</defs>
</svg>
