<svg width="14" height="13" viewBox="0 0 14 13" fill="none" xmlns="http://www.w3.org/2000/svg">
<g clip-path="url(#clip0_489_13)">
<path d="M10.1636 13C11.3267 13 12.091 12.6876 12.7623 11.93C12.8154 11.8768 12.8686 11.817 12.9152 11.7638C13.3139 11.3185 13.5 10.8799 13.5 10.4612C13.5 9.98263 13.2209 9.53738 12.6294 9.12528L10.6953 7.78281C10.0971 7.37071 9.39927 7.3242 8.84103 7.87583L8.32921 8.3876C8.17635 8.54042 8.04346 8.54707 7.89724 8.45404C7.53835 8.22806 6.81391 7.59669 6.32209 7.10488C5.80368 6.59313 5.30521 6.02156 5.03936 5.60286C4.95297 5.45 4.95961 5.32372 5.11248 5.17086L5.61759 4.65911C6.17587 4.10083 6.12934 3.39634 5.71728 2.80484L4.37474 0.870812C3.96268 0.279304 3.51738 0.00681225 3.03885 0.000166123C2.62014 -0.00648001 2.1815 0.186257 1.73619 0.585026C1.67638 0.638195 1.62321 0.684718 1.57004 0.731243C0.812372 1.40915 0.5 2.17345 0.5 3.32323C0.5 5.22403 1.66973 7.53689 3.81646 9.68356C5.9499 11.817 8.26941 13 10.1636 13ZM10.1702 11.9765C8.47542 12.0098 6.30214 10.7071 4.58078 8.99239C2.84612 7.2644 1.48364 5.01799 1.51687 3.32323C1.53017 2.59216 1.78936 1.96078 2.30777 1.50884C2.3543 1.46896 2.38752 1.43573 2.43405 1.4025C2.63344 1.2297 2.84612 1.13665 3.03885 1.13665C3.2316 1.13665 3.4044 1.20977 3.53067 1.40915L4.82004 3.34317C4.95961 3.5492 4.9729 3.78182 4.76687 3.98784L4.18201 4.57271C3.72342 5.03129 3.75665 5.58956 4.08896 6.03485C4.46779 6.54661 5.12577 7.29098 5.63752 7.7961C6.14263 8.30779 6.94683 9.02561 7.46523 9.41106C7.91054 9.74343 8.46885 9.77665 8.92736 9.31804L9.51229 8.73318C9.7183 8.52713 9.94427 8.54042 10.1569 8.67338L12.091 9.96269C12.2904 10.0957 12.3635 10.2618 12.3635 10.4612C12.3635 10.6539 12.2704 10.8666 12.0977 11.066C12.0578 11.1125 12.0312 11.1457 11.9913 11.1923C11.5394 11.7106 10.908 11.9632 10.1702 11.9765Z" fill="#D0D0D0"/>
</g>
<defs>
<clipPath id="clip0_489_13">
<rect width="13" height="13" fill="white" transform="translate(0.5)"/>
</clipPath>
</defs>
</svg>
