<svg width="28" height="28" viewBox="0 0 28 28" fill="none" xmlns="http://www.w3.org/2000/svg">
<path d="M26.7812 23.5263L24.9491 6.68421C24.8836 6.36842 24.5565 6.10526 24.1639 6.10526H20.2378C20.2378 3.31579 17.4241 1 13.8906 1C10.3572 1 7.54346 3.26316 7.54346 6.10526H3.61739C3.22478 6.10526 2.83217 6.36842 2.83217 6.68421L1 23.5263V23.5789C1 25.4737 3.15934 27 5.77673 27H22.0045C24.6219 27 26.7812 25.4737 26.7812 23.5789V23.5263ZM13.8252 2.31579C16.4426 2.31579 18.5365 4 18.5365 6.10526H9.1139C9.1139 4 11.2078 2.31579 13.8252 2.31579ZM21.9391 25.6842H5.71129C3.94456 25.6842 2.57043 24.7368 2.505 23.5789L4.27173 7.36842H7.47803V9.63158C7.47803 10 7.87064 10.2632 8.26324 10.2632C8.72129 10.2632 9.04846 9.94737 9.04846 9.63158V7.36842H18.471V9.63158C18.471 10 18.8637 10.2632 19.2563 10.2632C19.7143 10.2632 20.0415 9.94737 20.0415 9.63158V7.36842H23.2478L25.0145 23.5789C25.1454 24.7368 23.7058 25.6842 21.9391 25.6842Z" fill="white" stroke="white" stroke-miterlimit="10"/>
</svg>
