<svg width="29" height="25" viewBox="0 0 29 25" fill="none" xmlns="http://www.w3.org/2000/svg">
<g clip-path="url(#clip0_1039_180)">
<path fill-rule="evenodd" clip-rule="evenodd" d="M23.3823 6.98947V3.76842C23.3823 1.68421 21.7076 0 19.6301 0H9.39108C7.2924 0 5.59649 1.69474 5.59649 3.76842V6.97895H1.64291C0.73136 6.97895 0 7.72632 0 8.63158V12.1895C0 13.0947 0.73136 13.8211 1.64291 13.8211H2.14108L3.94298 23.6526C4.07018 24.4211 4.76974 24.9895 5.55409 24.9895H23.4565C24.2621 24.9895 24.9404 24.4211 25.0782 23.6526L26.8907 13.8211H27.3359C28.258 13.8211 28.9894 13.0947 28.9894 12.1895V8.63158C28.9894 7.72632 28.258 6.97895 27.3359 6.97895H23.3823V6.98947ZM8.65972 3.76842C8.65972 3.37895 8.9989 3.04211 9.39108 3.04211H19.6301C20.0223 3.04211 20.3297 3.37895 20.3297 3.76842V5.42105H8.65972V3.76842ZM7.34539 20.0737H10.663V23.2211H7.34539V20.0737ZM4.76974 15.5474H8.07675V18.6947H4.76974V15.5474ZM20.2237 15.5474H23.5307V18.6947H20.2237V15.5474ZM15.0618 15.5474H18.3688V18.6947H15.0618V15.5474ZM9.91045 15.5474H13.2387V18.6947H9.91045V15.5474ZM17.648 20.0737H20.9656V23.2211H17.648V20.0737ZM12.4861 20.0737H15.7931V23.2211H12.4861V20.0737Z" fill="#2C333A"/>
</g>
<defs>
<clipPath id="clip0_1039_180">
<rect width="29" height="25" fill="white"/>
</clipPath>
</defs>
</svg>
