<svg width="38" height="43" viewBox="0 0 38 43" fill="none" xmlns="http://www.w3.org/2000/svg">
<path fill-rule="evenodd" clip-rule="evenodd" d="M35.0054 23.6531C33.2559 21.1071 35.1 17.9952 34.8636 14.8205C34.6902 12.4474 35.6831 9.71272 35.6831 9.71272C34.438 10.53 34.4223 10.4357 33.6184 11.1115C29.363 14.6162 25.5015 19.3469 25.3596 19.7869C25.3439 19.8183 25.3439 19.8498 25.3439 19.8498V19.7869C25.3439 19.7869 29.9776 7.52814 20.6943 1.50877C19.9221 0.990132 18.1568 0 18.1568 0C18.1568 0 21.4666 10.53 13.2394 17.1937C11.6317 10.5928 4.09792 7.84247 4.09792 7.84247C4.09792 7.84247 4.77564 10.1371 4.87021 10.7029C6.25719 17.8538 0.97722 22.7887 0.11036 29.5782C0.173404 29.1067 0.204926 28.7924 0.11036 29.5782C-0.567367 34.9061 1.97017 39.0395 5.89468 41.8056C6.08381 39.9353 6.85611 38.0493 7.92786 36.5091C9.14147 34.7489 8.16428 29.9554 8.32189 27.7551C8.43222 26.1363 7.73873 24.2346 7.73873 24.2346C8.60559 24.8004 8.60559 24.7376 9.18875 25.2091C11.5844 27.1736 14.122 32.6115 14.453 33.4602C14.4687 33.4602 14.4687 33.4602 14.4845 33.4602C14.0905 31.6213 12.9241 24.4547 18.6927 20.6985C19.2286 20.3527 22.1759 17.8224 22.1759 17.8224C22.1759 17.8224 17.2111 26.7807 24.3824 32.5643C24.2564 30.7569 30.7972 26.5764 32.5782 26.0892C32.5782 26.0892 32.1211 27.6765 32.0423 28.0694C31.0809 33.0201 32.3733 38.3794 30.4505 43.0157H30.8603C32.9722 41.8841 34.9424 40.4068 36.2978 38.3951C37.4642 36.6349 38 34.686 38.0158 32.6901V32.3443C37.9843 29.2953 36.7707 26.1992 35.0212 23.6689L35.0054 23.6531Z" fill="#3D74A6"/>
</svg>
