<svg width="44" height="43" viewBox="0 0 44 43" fill="none" xmlns="http://www.w3.org/2000/svg">
<g clip-path="url(#clip0_972_163)">
<path fill-rule="evenodd" clip-rule="evenodd" d="M21.992 0C9.8457 0 0 9.61842 0 21.4843C0 33.3501 9.8457 43 21.992 43C34.1382 43 44 33.3816 44 21.4843C44 9.58699 34.1543 0 21.992 0ZM12.1623 27.3779C13.385 27.3779 14.479 27.8808 15.2834 28.6352C15.9751 29.3425 16.4417 30.2383 16.5543 31.2442H21.2197V22.2387H11.5027C11.551 23.9989 11.728 25.712 12.0175 27.3779C12.0497 27.3779 12.1302 27.3779 12.1623 27.3779ZM16.4256 32.7215C16.2325 33.4916 15.8303 34.1831 15.2673 34.7332C15.026 34.9689 14.7686 35.1732 14.479 35.3304C15.4764 37.4364 16.6991 39.4009 18.0987 41.114C19.0962 41.3026 20.1419 41.4126 21.1876 41.4755V32.7372H16.4095L16.4256 32.7215ZM13.1115 35.8805C12.7898 35.9433 12.4841 35.9748 12.1463 35.9748C10.9236 35.9748 9.82962 35.5033 9.04132 34.7175C8.47824 34.1674 8.09214 33.4759 7.883 32.7058H5.06764C5.80768 33.7588 6.62815 34.7332 7.54516 35.6133C9.82962 37.845 12.6611 39.5581 15.8303 40.5168C14.8007 39.0866 13.8998 37.515 13.1276 35.849L13.1115 35.8805ZM7.77038 31.2442C7.883 30.2383 8.34954 29.3268 9.04132 28.6509V28.6195C9.4596 28.2266 9.97441 27.8808 10.5375 27.6608C10.2157 25.9006 10.0227 24.0932 10.0066 22.223H1.56051C1.68921 25.492 2.60622 28.5567 4.15064 31.2284H7.78647L7.77038 31.2442ZM14.3824 29.4996C13.8033 28.9653 13.0311 28.6038 12.1623 28.6038C11.2936 28.6038 10.4892 28.9496 9.94223 29.4996C9.36307 30.0654 9.02523 30.8198 9.02523 31.6685C9.02523 32.5172 9.36307 33.303 9.94223 33.8374C10.5214 34.4031 11.2936 34.7646 12.1623 34.7646C13.0311 34.7646 13.8033 34.4031 14.3824 33.8374C14.9294 33.2873 15.2995 32.5172 15.2995 31.6685C15.2995 30.8198 14.9455 30.0654 14.3824 29.4996ZM33.2373 17.068C34.2669 17.178 35.1678 17.6023 35.8596 18.2781C36.5031 18.9382 36.9536 19.7712 37.0984 20.7142H42.4234C42.2786 17.4609 41.3777 14.3962 39.8172 11.693H32.1272C32.642 13.4218 32.996 15.2134 33.2373 17.068ZM37.034 22.2387C36.857 23.0559 36.4227 23.8103 35.8596 24.3761H35.8435C35.1839 25.0362 34.2669 25.4762 33.2695 25.602C33.0442 27.5351 32.6742 29.4211 32.1433 31.2284H39.785V31.307C41.3616 28.6195 42.2947 25.5391 42.4395 22.223H37.0501L37.034 22.2387ZM31.7572 25.5234C30.9367 25.3505 30.1967 24.9419 29.6176 24.3761C29.0384 23.8103 28.6201 23.0559 28.411 22.2387H22.7481V31.2442H30.5506C31.1137 29.4211 31.5159 27.5037 31.7572 25.5234ZM28.3788 20.7299C28.5075 19.7869 28.958 18.9539 29.6176 18.2939C30.1806 17.7438 30.9046 17.3352 31.709 17.178C31.4676 15.292 31.0815 13.4532 30.5346 11.7087H22.7481V20.7299H28.3788ZM34.9587 19.1583C34.3795 18.6239 33.6073 18.2624 32.7386 18.2624C31.8698 18.2624 31.0654 18.6239 30.5185 19.1583C29.9393 19.724 29.5854 20.4784 29.5854 21.3271C29.5854 22.1758 29.9393 22.9616 30.5185 23.496C31.0815 24.0618 31.8698 24.3918 32.7386 24.3918C33.6073 24.3918 34.3795 24.0618 34.9587 23.496C35.5218 22.9616 35.8757 22.1758 35.8757 21.3271C35.8757 20.4784 35.5218 19.724 34.9587 19.1583ZM12.5806 6.88377C12.7737 6.88377 12.9989 6.9152 13.1759 6.93092C13.9481 5.32785 14.8168 3.81908 15.8143 2.43604C12.6289 3.42617 9.81353 5.12354 7.52907 7.37098C6.61207 8.26681 5.79159 9.22551 5.08373 10.2628H8.28519C8.46216 9.44554 8.89653 8.72259 9.4596 8.1568C10.264 7.37098 11.374 6.89949 12.5645 6.89949L12.5806 6.88377ZM14.6238 7.3867C15.026 7.57529 15.3799 7.84247 15.6856 8.14108C16.2647 8.70687 16.683 9.42982 16.86 10.2471H21.2037V1.52449C20.158 1.55592 19.1122 1.68165 18.1148 1.87025C16.7795 3.52047 15.6051 5.375 14.6238 7.40241V7.3867ZM16.9404 11.7087C16.8278 12.6988 16.3612 13.5632 15.7016 14.2233C14.8973 14.9777 13.8194 15.4806 12.5806 15.4806C12.4037 15.4806 12.2106 15.4492 12.0175 15.4335C11.7119 17.1623 11.5349 18.9068 11.4867 20.7142H21.2037V11.7087H16.9404ZM10.5857 15.0091C10.1835 14.7891 9.79744 14.5376 9.47569 14.2233C8.8 13.5475 8.33346 12.6831 8.23693 11.7087H4.15064C2.60622 14.4119 1.67313 17.4766 1.54442 20.7299H10.0066C10.0548 18.7811 10.2479 16.8637 10.5857 15.0091ZM14.8007 9.0212C14.2216 8.45541 13.4494 8.10965 12.5806 8.10965C11.7119 8.10965 10.9397 8.47113 10.3605 9.0212C9.81353 9.55555 9.44351 10.3414 9.44351 11.1901C9.44351 12.0387 9.79744 12.7931 10.3605 13.3589C10.9397 13.909 11.7119 14.2548 12.5806 14.2548C13.4494 14.2548 14.2537 13.909 14.8007 13.3589C15.3799 12.7931 15.7177 12.0387 15.7177 11.1901C15.7177 10.3414 15.3799 9.55555 14.8007 9.0212ZM22.7642 10.2628V1.52449C23.6329 1.55592 24.4856 1.65022 25.306 1.77595C27.2848 4.19627 28.9097 7.05665 30.068 10.2471H22.7803L22.7642 10.2628ZM22.7642 32.7215H30.0841C28.9258 35.9119 27.2848 38.788 25.306 41.224C24.4856 41.3655 23.6329 41.4441 22.7642 41.4755V32.7372V32.7215ZM38.9163 10.2471H31.6607C30.6633 7.30811 29.2636 4.62061 27.5422 2.24744C30.9528 3.19042 34.0095 4.96637 36.4548 7.35526C37.3397 8.2511 38.1762 9.2098 38.9002 10.2471H38.9163ZM36.4709 35.6133C34.0256 37.9865 30.9528 39.7624 27.5583 40.7054C29.2636 38.3322 30.6633 35.6447 31.6768 32.7058H38.9324C38.2084 33.7588 37.3718 34.7332 36.487 35.6133H36.4709Z" fill="#3D74A6"/>
</g>
<defs>
<clipPath id="clip0_972_163">
<rect width="44" height="43" fill="white"/>
</clipPath>
</defs>
</svg>
