<svg width="24" height="23" viewBox="0 0 24 23" fill="none" xmlns="http://www.w3.org/2000/svg">
<path d="M9.9846 17.99C11.9241 17.99 13.735 17.3935 15.2071 16.3993L20.7451 21.6355C21.0021 21.8785 21.3409 22 21.6914 22C22.4509 22 23 21.4477 23 20.7407C23 20.4093 22.8832 20.0999 22.6261 19.8569L17.1232 14.6428C18.2799 13.2067 18.9692 11.4282 18.9692 9.495C18.9692 4.8222 14.9267 1 9.9846 1C5.0308 1 1 4.8222 1 9.495C1 14.1678 5.0308 17.99 9.9846 17.99ZM9.9846 16.1562C6.11737 16.1562 2.93946 13.1405 2.93946 9.495C2.93946 5.84955 6.11737 2.83377 9.9846 2.83377C13.8401 2.83377 17.0297 5.84955 17.0297 9.495C17.0297 13.1405 13.8401 16.1562 9.9846 16.1562Z" fill="white" stroke="white"/>
</svg>
