<svg width="18" height="14" viewBox="0 0 18 14" fill="none" xmlns="http://www.w3.org/2000/svg">
<g clip-path="url(#clip0_489_9)">
<path d="M2.55978 14H15.6848C17.1522 14 18 13.155 18 11.4811V2.51074C18 0.845038 17.144 0 15.4402 0H2.31522C0.847826 0 0 0.836912 0 2.51074V11.4811C0 13.1631 0.855978 14 2.55978 14ZM8.02989 7.41033L1.875 1.35694C2.05435 1.28381 2.2663 1.24318 2.51087 1.24318H15.4891C15.7418 1.24318 15.962 1.28381 16.1413 1.36506L10.0027 7.41033C9.65217 7.75972 9.33424 7.9141 9.0163 7.9141C8.69022 7.9141 8.37228 7.7516 8.02989 7.41033ZM1.24728 11.4811V2.51074C1.24728 2.44573 1.24728 2.47824 1.24728 2.42136L5.93478 7.01219L1.25543 11.6193C1.24728 11.5786 1.24728 11.5299 1.24728 11.4811ZM16.7527 2.51886V11.4893C16.7527 11.5218 16.7527 11.5624 16.7527 11.5949L12.0978 7.01219L16.7527 2.44573C16.7527 2.51886 16.7527 2.51886 16.7527 2.51886ZM2.51087 12.7568C2.28261 12.7568 2.08696 12.7243 1.91576 12.6512L6.79076 7.8491L7.32065 8.36912C7.8913 8.92977 8.4375 9.16541 9.0163 9.16541C9.58696 9.16541 10.1413 8.92977 10.712 8.36912L11.2418 7.8491L16.1087 12.6431C15.9293 12.7243 15.7255 12.7568 15.4891 12.7568H2.51087Z" fill="#5D7079"/>
</g>
<defs>
<clipPath id="clip0_489_9">
<rect width="18" height="14" fill="white"/>
</clipPath>
</defs>
</svg>
