<svg width="27" height="27" viewBox="0 0 27 27" fill="none" xmlns="http://www.w3.org/2000/svg">
<path d="M13.5077 13.5146C17.186 13.5146 20.1843 10.4239 20.1843 6.66253C20.1843 2.93035 17.2015 0 13.5077 0C9.84488 0 6.83114 2.98866 6.83114 6.69168C6.84659 10.4384 9.82942 13.5146 13.5077 13.5146ZM13.5077 11.3132C11.2513 11.3132 9.3194 9.27214 9.3194 6.69168C9.3194 4.15497 11.2204 2.2014 13.5077 2.2014C15.8105 2.2014 17.6961 4.12581 17.6961 6.66253C17.6961 9.24298 15.7796 11.3132 13.5077 11.3132ZM3.78649 27H23.2135C25.779 27 27 26.2711 27 24.6674C27 20.8477 21.8844 15.3224 13.5077 15.3224C5.11563 15.3224 0 20.8477 0 24.6674C0 26.2711 1.22095 27 3.78649 27ZM3.0601 24.7986C2.65827 24.7986 2.48827 24.6965 2.48827 24.3904C2.48827 21.9995 6.41385 17.5238 13.5077 17.5238C20.5861 17.5238 24.5117 21.9995 24.5117 24.3904C24.5117 24.6965 24.3572 24.7986 23.9554 24.7986H3.0601Z" fill="#2C333A"/>
</svg>
