<svg width="25" height="43" viewBox="0 0 25 43" fill="none" xmlns="http://www.w3.org/2000/svg">
<path fill-rule="evenodd" clip-rule="evenodd" d="M20.5569 27.7236V22.3014C20.5569 10.247 15.4491 2.95467 13.3274 0.42434C13.0917 0.157163 12.7459 0 12.3845 0C12.023 0 11.6772 0.141447 11.4729 0.408624C9.28834 2.93895 4.08624 10.2313 4.08624 22.3014V27.7236L3.0804 28.3837C1.16301 29.6724 0 31.857 0 34.183V40.6424C0 41.0196 0.220028 41.3811 0.534355 41.5539C0.880113 41.7425 1.28874 41.7111 1.61878 41.5068L4.85634 39.3379C5.75217 38.7407 6.8366 38.4107 7.93674 38.4107H8.29821V41.6482C8.29821 42.3869 8.89543 42.9841 9.6341 42.9841H15.0091C15.7477 42.9841 16.345 42.3869 16.345 41.6482V38.4107H16.7222C17.8223 38.4107 18.891 38.725 19.8026 39.3379L23.0401 41.5068C23.3387 41.7268 23.7631 41.7425 24.0931 41.5539C24.4389 41.3811 24.6589 41.0196 24.6589 40.6424V34.183C24.6589 31.857 23.4802 29.7038 21.5628 28.3837L20.5727 27.7236H20.5569ZM12.3216 14.4904C14.0504 14.4904 15.4491 15.8735 15.4491 17.6023C15.4491 19.3311 14.0661 20.7141 12.3216 20.7141C10.5771 20.7141 9.22547 19.3311 9.22547 17.6023C9.22547 15.8735 10.6085 14.4904 12.3216 14.4904ZM12.3216 6.50655C14.0504 6.50655 15.4491 7.88959 15.4491 9.60267C15.4491 11.3157 14.0661 12.7145 12.3216 12.7145C10.5771 12.7145 9.22547 11.3315 9.22547 9.60267C9.22547 7.87387 10.6085 6.50655 12.3216 6.50655Z" fill="#3D74A6"/>
</svg>
