<svg width="39" height="24" viewBox="0 0 39 24" fill="none" xmlns="http://www.w3.org/2000/svg">
<path fill-rule="evenodd" clip-rule="evenodd" d="M20.0369 17.3485C17.0638 17.39 14.0492 17.0719 11.2143 16.2561C9.74852 15.8274 8.35184 15.2742 7.07962 14.5552C5.82123 13.8222 4.6873 12.8957 4.03736 11.8171C3.70548 11.2778 3.51188 10.697 3.47039 10.13C3.44274 9.53542 3.53954 8.94079 3.78845 8.36C4.03736 7.7792 4.43839 7.21223 4.92238 6.71441C5.40638 6.18893 5.95952 5.73259 6.5818 5.3039C7.81253 4.46037 9.22304 3.81043 10.675 3.28495C12.1408 2.75946 13.662 2.37227 15.2108 2.10953C18.3083 1.57022 21.5166 1.45959 24.6694 1.76381C26.2459 1.92976 27.8223 2.20633 29.3435 2.62118C30.8646 3.03603 32.3581 3.58917 33.7409 4.33591C35.1099 5.09648 36.4098 6.03681 37.2672 7.30903C37.6959 7.93131 38.0139 8.63657 38.1246 9.3833C38.249 10.13 38.1522 10.9044 37.8895 11.6235C37.6267 12.3426 37.2119 13.0202 36.7002 13.6148C36.1886 14.2094 35.5801 14.7488 34.9302 15.2189C33.6303 16.1454 32.1645 16.8783 30.6572 17.4453C32.1921 16.9613 33.6994 16.3114 35.0546 15.4125C35.7322 14.9562 36.3822 14.4584 36.9491 13.8637C37.5161 13.2691 37.9863 12.5777 38.3182 11.8033C38.6362 11.0427 38.7883 10.1715 38.6915 9.31416C38.6086 8.47062 38.3043 7.65474 37.848 6.93566C37.4055 6.21658 36.8247 5.58047 36.2162 5.02733C35.5939 4.47419 34.9025 3.9902 34.1973 3.54769C32.7729 2.69032 31.2518 2.02656 29.6754 1.52873C28.0989 1.00325 26.481 0.657536 24.8492 0.394795C21.5857 -0.0892014 18.253 -0.130687 14.948 0.284167C13.3024 0.505423 11.6569 0.823478 10.0527 1.3213C8.44864 1.83296 6.85837 2.46907 5.37872 3.38175C4.63199 3.85191 3.9129 4.3774 3.24914 5.01351C2.5992 5.63579 2.00457 6.38252 1.54824 7.26755C1.10572 8.1664 0.842983 9.1897 0.87064 10.2268C0.898297 11.264 1.20252 12.2735 1.67269 13.1308C2.14286 14.002 2.73748 14.7349 3.41508 15.3849C4.07885 16.021 4.79793 16.5741 5.54466 17.0581C7.05197 18.0123 8.64224 18.7175 10.274 19.2568C13.4407 20.3355 16.7457 20.8333 20.0507 20.9439V24L28.5552 19.0771L20.0369 14.168V17.3347V17.3485ZM25.112 6.76972V5.33156H30.4636V6.4655C30.0211 6.89418 29.5786 7.51646 29.1222 8.33234C28.6659 9.14822 28.3202 10.0194 28.0851 10.9321C27.8362 11.8448 27.7255 12.6607 27.7255 13.3797H26.2182C26.2459 12.2596 26.481 11.098 26.9235 9.93644C27.366 8.76102 27.9468 7.71006 28.6935 6.78355H25.1258L25.112 6.76972ZM21.4474 13.518L23.4664 5.09648H24.6418L22.5952 13.518H21.4336H21.4474ZM18.6817 13.3659V11.7341H15.3491V10.3651L18.8753 5.19328H20.189V10.3651H21.1985V11.7341H20.189V13.3659H18.6817ZM18.6817 10.3651V7.57177L16.8287 10.3651H18.6817ZM14.5747 11.9277V13.3659H9.09858C9.1539 12.8128 9.31984 12.3011 9.62406 11.8033C9.92829 11.3055 10.5091 10.6555 11.3803 9.85347C12.0855 9.20353 12.5142 8.74719 12.6802 8.52594C12.9014 8.19405 12.9982 7.88983 12.9982 7.55795C12.9982 7.22606 12.9014 6.94949 12.7078 6.75589C12.528 6.57612 12.2653 6.47932 11.9334 6.47932C11.6015 6.47932 11.3526 6.57612 11.159 6.76972C10.9654 6.96332 10.8686 7.2952 10.841 7.75154L9.27835 7.59943C9.37515 6.72824 9.66555 6.11978 10.1495 5.74642C10.6474 5.35922 11.2558 5.19328 11.9887 5.19328C12.7908 5.19328 13.4269 5.4007 13.8832 5.84321C14.3396 6.2719 14.5747 6.81121 14.5747 7.46115C14.5747 7.83451 14.5055 8.18023 14.3672 8.51211C14.2289 8.83016 14.0353 9.18971 13.745 9.54925C13.5514 9.78433 13.2195 10.13 12.7355 10.5864C12.2376 11.0427 11.9196 11.3469 11.7951 11.4991C11.6569 11.6373 11.5601 11.7895 11.4771 11.9277H14.5885H14.5747Z" fill="#3D74A6"/>
</svg>
