<svg width="10" height="10" viewBox="0 0 10 10" fill="none" xmlns="http://www.w3.org/2000/svg">
<circle cx="5" cy="5" r="5" fill="#888888"/>
<path d="M5.14062 6.18182V5.9517C5.14062 5.77273 5.17898 5.60724 5.25568 5.45526C5.33381 5.30327 5.44673 5.18111 5.59446 5.08878C5.74219 4.99645 5.92259 4.95028 6.13565 4.95028C6.35298 4.95028 6.53551 4.99645 6.68324 5.08878C6.83239 5.17969 6.9446 5.30114 7.01989 5.45312C7.09659 5.60369 7.13494 5.76989 7.13494 5.9517V6.18182C7.13494 6.3608 7.09659 6.52628 7.01989 6.67827C6.94318 6.83026 6.83026 6.95241 6.68111 7.04474C6.53196 7.13707 6.35014 7.18324 6.13565 7.18324C5.91974 7.18324 5.73793 7.13707 5.5902 7.04474C5.44247 6.95241 5.33026 6.83026 5.25355 6.67827C5.17827 6.52628 5.14062 6.3608 5.14062 6.18182ZM5.82031 5.9517V6.18182C5.82031 6.27273 5.84233 6.36009 5.88636 6.44389C5.93182 6.5277 6.01491 6.5696 6.13565 6.5696C6.25923 6.5696 6.34233 6.52912 6.38494 6.44815C6.42756 6.36577 6.44886 6.27699 6.44886 6.18182V5.9517C6.44886 5.85653 6.42827 5.76705 6.38707 5.68324C6.3473 5.59801 6.26349 5.5554 6.13565 5.5554C6.01634 5.5554 5.93395 5.59801 5.88849 5.68324C5.84304 5.76705 5.82031 5.85653 5.82031 5.9517ZM2.87784 3.68466V3.45455C2.87784 3.27273 2.9169 3.10653 2.99503 2.95597C3.07457 2.80398 3.18821 2.68253 3.33594 2.59162C3.48366 2.49929 3.66264 2.45312 3.87287 2.45312C4.0902 2.45312 4.27273 2.49929 4.42045 2.59162C4.5696 2.68253 4.68253 2.80398 4.75923 2.95597C4.83594 3.10653 4.87429 3.27273 4.87429 3.45455V3.68466C4.87429 3.86648 4.83523 4.03267 4.7571 4.18324C4.6804 4.33381 4.56747 4.45384 4.41832 4.54332C4.26918 4.63281 4.08736 4.67756 3.87287 4.67756C3.65838 4.67756 3.47656 4.6321 3.32741 4.54119C3.17969 4.45028 3.06747 4.32955 2.99077 4.17898C2.91548 4.02841 2.87784 3.86364 2.87784 3.68466ZM3.56392 3.45455V3.68466C3.56392 3.77983 3.58594 3.86861 3.62997 3.95099C3.67543 4.03196 3.75639 4.07244 3.87287 4.07244C3.99787 4.07244 4.08097 4.03196 4.12216 3.95099C4.16477 3.86861 4.18608 3.77983 4.18608 3.68466V3.45455C4.18608 3.35937 4.16619 3.26989 4.12642 3.18608C4.08665 3.10085 4.00213 3.05824 3.87287 3.05824C3.75355 3.05824 3.67188 3.10156 3.62784 3.18821C3.58523 3.27486 3.56392 3.36364 3.56392 3.45455ZM3.19957 7L6.19957 2.63636H6.78125L3.78125 7H3.19957Z" fill="white"/>
</svg>
