<svg width="90" height="109" viewBox="0 0 90 109" fill="none" xmlns="http://www.w3.org/2000/svg">
<g clip-path="url(#clip0_422_18)">
<path d="M87 76.42C89.38 72.26 90.32 67.6 88.59 64.6C86.49 60.97 81.18 60.51 76.13 60.82C71.08 61.13 65.6 62 61.63 60.23C54.53 57.08 54.76 47 49.86 41.44C46.65 37.81 41.15 36.29 35.07 37.33C12.38 41.24 -2.64999 71.24 0.390008 87.44C2.84001 100.51 14.85 108 29.39 108.26C43.28 108.49 60.45 100.89 73.97 90.17C75.03 89.33 76.07 88.47 77.09 87.59C80.9859 84.4378 84.3344 80.6637 87 76.42V76.42Z" fill="#EBEBEB"/>
<path d="M33.5399 25.67H36.2599C37.3149 29.0109 39.4073 31.9286 42.2331 33.9996C45.059 36.0707 48.4714 37.1872 51.9749 37.1872C55.4784 37.1872 58.8908 36.0707 61.7167 33.9996C64.5425 31.9286 66.6348 29.0109 67.6899 25.67H70.4199C70.9713 25.6525 71.4953 25.4256 71.8854 25.0355C72.2755 24.6454 72.5024 24.1214 72.5199 23.57V16.87C72.5199 16.313 72.2986 15.7789 71.9048 15.3851C71.511 14.9912 70.9768 14.77 70.4199 14.77H68.4199C67.9999 6.6 60.8899 0 52.0799 0C43.2699 0 36.0799 6.49 35.6399 14.77H33.6399C33.2594 14.7541 32.8834 14.8573 32.5643 15.0652C32.2452 15.2732 31.999 15.5755 31.8599 15.93C31.7405 16.2302 31.6697 16.5475 31.6499 16.87V23.57C31.5779 24.0471 31.6972 24.5332 31.9819 24.9228C32.2665 25.3123 32.6935 25.5737 33.1699 25.65C33.293 25.6602 33.4168 25.6602 33.5399 25.65V25.67ZM40.3499 19.8C40.3499 19.8 40.7699 12.99 41.0799 10.26C41.1382 9.95639 41.3134 9.68781 41.5678 9.51202C41.8221 9.33623 42.1352 9.26728 42.4399 9.32C45.5452 9.92882 48.7058 10.2104 51.8699 10.16C55.0336 10.2009 58.1932 9.9194 61.2999 9.32C61.6045 9.26728 61.9177 9.33623 62.172 9.51202C62.4264 9.68781 62.6015 9.95639 62.6599 10.26C62.9799 13.09 63.3999 19.8 63.3999 19.8C63.3972 19.8941 63.4133 19.9877 63.4472 20.0755C63.481 20.1633 63.532 20.2435 63.5971 20.3115C63.6623 20.3794 63.7403 20.4337 63.8266 20.4712C63.9129 20.5087 64.0058 20.5287 64.0999 20.53H64.9999V21.16C64.9805 21.7252 64.9102 22.2874 64.7899 22.84L63.3999 24C61.8555 25.3393 59.8841 26.0839 57.8399 26.1H54.9099C54.813 25.7313 54.5943 25.4061 54.2893 25.1774C53.9844 24.9486 53.611 24.8297 53.2299 24.84H50.6099C50.1426 24.855 49.6985 25.0474 49.3679 25.378C49.0372 25.7086 48.8449 26.1527 48.8299 26.62V27.67C48.8449 28.1373 49.0372 28.5814 49.3679 28.912C49.6985 29.2426 50.1426 29.435 50.6099 29.45H53.2299C53.6203 29.4336 53.9949 29.2913 54.2977 29.0443C54.6005 28.7974 54.8152 28.4591 54.9099 28.08H57.9099C60.0952 28.0617 62.2204 27.3626 63.9899 26.08C62.96 28.4367 61.2645 30.4414 59.1116 31.8483C56.9586 33.2552 54.4418 34.003 51.8699 34C50.1784 34.0291 48.4977 33.7248 46.9239 33.1043C45.3501 32.4838 43.9139 31.5593 42.6974 30.3837C41.4809 29.208 40.5079 27.8042 39.834 26.2525C39.1601 24.7008 38.7985 23.0315 38.7699 21.34V20.69H39.6099C39.82 20.6562 40.0107 20.5474 40.1468 20.3838C40.2829 20.2201 40.355 20.0127 40.3499 19.8V19.8Z" fill="#0088CC"/>
<path d="M72.5099 44.52C71.877 42.5447 70.6337 40.821 68.9589 39.5973C67.2841 38.3735 65.2642 37.7127 63.1899 37.71H61.7199L55.4299 54.27L53.2299 44.84H53.4399C53.7982 44.8324 54.1397 44.6866 54.3931 44.4332C54.6465 44.1798 54.7922 43.8383 54.7999 43.48V41C54.7922 40.6417 54.6465 40.3002 54.3931 40.0468C54.1397 39.7934 53.7982 39.6477 53.4399 39.64H50.1899C49.8316 39.6477 49.4901 39.7934 49.2367 40.0468C48.9833 40.3002 48.8376 40.6417 48.8299 41V43.52C48.8376 43.8783 48.9833 44.2198 49.2367 44.4732C49.4901 44.7266 49.8316 44.8724 50.1899 44.88H50.3999L48.1999 54.31L41.9099 37.71H40.4499C38.3745 37.7081 36.3524 38.3671 34.6767 39.5915C33.001 40.8159 31.7587 42.5422 31.1299 44.52L24.3199 65.89C23.824 67.4215 23.8648 69.0763 24.4356 70.5815C25.0064 72.0867 26.0732 73.3525 27.4599 74.17C34.8771 78.4598 43.3017 80.6997 51.8699 80.66C60.4328 80.6586 68.847 78.4215 76.2799 74.17C77.6666 73.3525 78.7334 72.0867 79.3042 70.5815C79.875 69.0763 79.9158 67.4215 79.4199 65.89L72.5099 44.52Z" fill="#0088CC"/>
</g>
<defs>
<clipPath id="clip0_422_18">
<rect width="89.46" height="108.26" fill="white"/>
</clipPath>
</defs>
</svg>
