<svg width="19" height="27" viewBox="0 0 19 27" fill="none" xmlns="http://www.w3.org/2000/svg">
<path fill-rule="evenodd" clip-rule="evenodd" d="M17.0001 0.219535V1.88702H15.3425C15.3425 -0.629006 13.675 -0.629006 13.675 1.88702H12.0174C12.0174 -0.629006 10.3598 -0.629006 10.3598 1.88702H8.70214C8.70214 -0.629006 7.03466 -0.629006 7.03466 1.88702H5.37704C5.37704 -0.629006 3.71943 -0.629006 3.71943 1.88702H2.08154V0.219535H0.414062V26.7512H2.08154V25.0936H3.73916C3.73916 27.6195 5.39677 27.6195 5.39677 25.0936H7.05439C7.05439 27.6195 8.72187 27.6195 8.72187 25.0936H10.3795C10.3795 27.6195 12.0371 27.6195 12.0371 25.0936H13.6947C13.6947 27.6195 15.3622 27.6195 15.3622 25.0936H17.0198V26.7512H18.6774V0.219535H17.0198H17.0001ZM9.30401 8.28067L6.54132 10.9546L6.25518 10.037L8.39627 7.96494L9.29414 8.28067H9.30401ZM5.78158 9.54362L7.00506 8.34974L7.93253 7.4716L7.05439 5.34038L3.46289 4.06757L3.15702 4.35371L5.10077 6.36652C5.42637 6.18892 5.86051 6.22839 6.12691 6.51453C6.45252 6.85 6.45252 7.39267 6.10718 7.72814C5.77171 8.05374 5.22904 8.04387 4.90344 7.7084C4.63703 7.42227 4.59757 6.98813 4.7949 6.67239L2.86102 4.65958L2.54528 4.95558L3.69969 8.59641L5.79144 9.54362H5.78158ZM17.0001 23.436H2.08154V3.53477H17.0001V23.436ZM13.5072 13.885H5.21917V12.2175H13.5072V13.885ZM13.5072 17.1904H5.21917V15.5426H13.5072V17.1904ZM11.3563 20.5155H5.21917V18.848H11.3563V20.5155Z" fill="#2C333A"/>
</svg>
