<svg width="85" height="81" viewBox="0 0 85 81" fill="none" xmlns="http://www.w3.org/2000/svg">
<path d="M3.53466 56.1067C4.07454 59.8604 6.05274 63.4196 9.18629 64.8307C12.974 66.5362 17.4619 64.8555 21.2883 62.7304C25.1147 60.6053 28.9451 57.9668 33.1259 57.6832C40.6055 57.1706 46.324 64.1961 53.4659 66.1646C55.8807 66.7796 58.4017 66.8519 60.8478 66.3764C63.2939 65.9008 65.6042 64.8892 67.6127 63.4143C83.3315 52.1819 77.7001 25.8875 65.8144 15.8988C56.2186 7.83449 42.3012 7.20911 30.5869 12.5264C19.4163 17.5991 10.2347 29.2973 5.77669 41.7622C5.42613 42.7408 5.10491 43.7246 4.81304 44.7134C3.58261 48.3773 3.14681 52.2613 3.53466 56.1067V56.1067Z" fill="#DCDCDC"/>
<path d="M64.5752 4.51365L43.6893 25.9681C43.3081 26.2738 42.8538 26.4747 42.3713 26.5512C41.8887 26.6276 41.3945 26.5768 40.9376 26.4039L14.4382 12.4546C30.4099 9.80848 51.2642 6.52673 64.5752 4.51365ZM13.2982 14.0212L31.8288 25.5432L17.7976 42.4291C16.2412 33.0309 14.6339 22.5887 13.2982 14.0212V14.0212ZM66.1464 5.65086C67.6309 14.8894 69.4151 25.7388 70.6458 34.0588L52.0833 22.3352L66.1464 5.65086ZM34.4823 28.291C36.4703 29.432 38.4993 30.6405 40.4795 31.7453C41.3665 32.0283 42.3074 32.0998 43.227 31.9542C44.1466 31.8085 45.0194 31.4497 45.7755 30.9065C47.3343 29.2422 48.8775 27.4791 50.4117 25.768L69.5049 35.6255C53.3508 38.2195 33.9968 41.2707 19.3678 43.5664L34.4823 28.291Z" fill="#0088CC"/>
</svg>
