<svg width="43" height="43" viewBox="0 0 43 43" fill="none" xmlns="http://www.w3.org/2000/svg">
<path fill-rule="evenodd" clip-rule="evenodd" d="M14.7889 34.9532C12.5729 34.9532 10.7498 36.7449 10.7498 38.9609C10.7498 41.1769 12.5729 43 14.7889 43C17.0049 43 18.828 41.2083 18.828 38.9609C18.828 36.7135 17.0049 34.9532 14.7889 34.9532ZM41.6482 0H34.9373C34.2772 0 33.7271 0.487208 33.6171 1.11586L32.8313 5.39072H1.35138C0.911325 5.39072 0.486983 5.61075 0.235521 5.97222C-0.0316575 6.36513 -0.0788066 6.82091 0.10979 7.24525L6.8364 23.3702C7.02499 23.8732 7.52792 24.2032 8.07799 24.2032H29.4208L28.4464 29.5625H10.7498C10.0111 29.5625 9.4296 30.1754 9.4296 30.9141C9.4296 31.6528 10.0111 32.2657 10.7498 32.2657H29.5466C30.2066 32.2657 30.7567 31.8099 30.8667 31.1499L36.0374 2.70322H41.6324C42.3711 2.70322 42.9841 2.12171 42.9841 1.35161C42.9841 0.581506 42.3868 0 41.6324 0H41.6482ZM25.5389 34.9532C23.3072 34.9532 21.4998 36.7449 21.4998 38.9609C21.4998 41.1769 23.3072 43 25.5389 43C27.7706 43 29.5623 41.2083 29.5623 38.9609C29.5623 36.7135 27.7549 34.9532 25.5389 34.9532Z" fill="#3D74A6"/>
</svg>
