<svg width="30" height="43" viewBox="0 0 30 43" fill="none" xmlns="http://www.w3.org/2000/svg">
<path fill-rule="evenodd" clip-rule="evenodd" d="M26.4191 0.361651V3.01771H23.7788C23.7788 -0.989952 21.1227 -0.989952 21.1227 3.01771H18.4824C18.4824 -0.989952 15.842 -0.989952 15.842 3.01771H13.2017C13.2017 -0.989952 10.5456 -0.989952 10.5456 3.01771H7.90531C7.90531 -0.989952 5.26496 -0.989952 5.26496 3.01771H2.65606V0.361651H0V42.6228H2.65606V39.9825H5.2964C5.2964 44.0059 7.93674 44.0059 7.93674 39.9825H10.5771C10.5771 44.0059 13.2331 44.0059 13.2331 39.9825H15.8735C15.8735 44.0059 18.5138 44.0059 18.5138 39.9825H21.1542C21.1542 44.0059 23.8102 44.0059 23.8102 39.9825H26.4506V42.6228H29.0909V0.361651H26.4506H26.4191ZM14.1604 13.2019L9.75983 17.461L9.30406 15.9994L12.7145 12.699L14.1447 13.2019H14.1604ZM8.54967 15.2136L10.4985 13.3119L11.9758 11.9131L10.5771 8.51842L4.85634 6.49101L4.36913 6.94679L7.46525 10.1529C7.98389 9.87002 8.6754 9.93288 9.09974 10.3887C9.61838 10.923 9.61838 11.7874 9.06831 12.3218C8.53396 12.8404 7.66956 12.8247 7.15092 12.2903C6.72658 11.8346 6.66372 11.143 6.97804 10.6401L3.89765 7.43399L3.39472 7.90548L5.23353 13.7048L8.56539 15.2136H8.54967ZM26.4191 37.3421H2.65606V5.64233H26.4191V37.3421ZM20.8555 22.1287H7.65384V19.4727H20.8555V22.1287ZM20.8555 27.3937H7.65384V24.7691H20.8555V27.3937ZM17.4294 32.6901H7.65384V30.034H17.4294V32.6901Z" fill="#3D74A6"/>
</svg>
