<svg width="35" height="35" viewBox="0 0 35 35" fill="none" xmlns="http://www.w3.org/2000/svg">
<circle cx="17.5" cy="17.5" r="17.5" fill="#0088CC"/>
<path d="M25 18.75C25.4142 18.75 25.75 18.4142 25.75 18C25.75 17.5858 25.4142 17.25 25 17.25V18.75ZM10.4697 17.4697C10.1768 17.7626 10.1768 18.2374 10.4697 18.5303L15.2426 23.3033C15.5355 23.5962 16.0104 23.5962 16.3033 23.3033C16.5962 23.0104 16.5962 22.5355 16.3033 22.2426L12.0607 18L16.3033 13.7574C16.5962 13.4645 16.5962 12.9896 16.3033 12.6967C16.0104 12.4038 15.5355 12.4038 15.2426 12.6967L10.4697 17.4697ZM25 17.25H11V18.75H25V17.25Z" fill="white"/>
</svg>
