<svg width="49" height="30" viewBox="0 0 49 30" fill="none" xmlns="http://www.w3.org/2000/svg">
<path d="M44.4569 0.454555L40.4594 4.5242L40.1778 4.81096L27.2266 17.9961L26.7891 22.6149L31.3259 22.1695L44.2771 8.98433L44.5588 8.69756L48.5562 4.62792C49.1435 4.02998 49.1435 3.05986 48.5562 2.45582L46.5844 0.448454C45.9971 -0.149485 45.0442 -0.149485 44.4509 0.448454L44.4569 0.454555ZM43.1384 8.69756L30.8704 21.1871L27.9038 21.48L28.1915 18.4598L40.4594 5.97023L43.1384 8.69756Z" fill="#3D74A6"/>
<path d="M34.8562 19.8876V26.1965C34.8562 26.8981 34.1909 27.4655 33.3759 27.4655H2.98459C2.16952 27.4655 1.50428 26.8981 1.50428 26.1965V13.1272H5.75942C7.40753 13.1272 8.74401 11.8703 8.74401 10.3206V5.22591H33.3759C34.1909 5.22591 34.8562 5.79334 34.8562 6.495V9.27724L36.3664 7.73969V6.4889C36.3664 4.93914 35.03 3.68225 33.3818 3.68225H7.23973L0 11.5958V26.1965C0 27.7462 1.33647 29.0031 2.98459 29.0031H33.3759C35.024 29.0031 36.3604 27.7462 36.3604 26.1965V18.3561L34.8502 19.8876H34.8562ZM7.23973 5.22591V10.3267C7.23973 11.0283 6.57449 11.5958 5.75942 11.5958H1.50428L7.23973 5.22591Z" fill="#3D74A6"/>
<path d="M18.537 23.8961C18.0995 24.0609 18.4112 23.0663 18.4232 22.9504C18.4292 22.8772 18.4112 22.8284 18.3513 22.7857C17.9018 22.4989 17.0987 23.4019 16.787 23.646C16.3615 23.9815 16.0259 24.427 15.6304 24.793C14.8213 25.5496 14.7314 24.5673 14.4977 23.89C16.0139 22.145 17.4643 19.8265 17.68 17.6178C17.716 17.3493 17.4043 17.3432 17.3264 17.569C16.7211 19.4726 15.8821 21.2176 14.7014 22.8162C14.5576 23.0114 14.4078 23.2006 14.2579 23.3897C13.2151 21.7667 10.698 23.0114 9.94287 24.4819C9.64321 25.0737 10.668 25.574 11.0156 25.751C11.9686 26.233 12.9754 25.4886 13.6227 24.8418C13.7845 24.6771 13.9523 24.5002 14.1201 24.3232C14.1321 24.3476 14.1441 24.372 14.1501 24.4025C14.3778 25.0554 14.3898 26.4526 15.4026 25.6289C15.8102 25.2934 16.1698 24.8724 16.4754 24.4453C16.7691 24.0365 17.1706 23.7253 17.5721 23.4324C18.2793 22.9077 17.9857 23.7314 17.9138 24.1951C17.8898 24.3476 18.0336 24.4636 18.1655 24.3659C18.4292 24.1707 18.3692 24.2256 18.585 23.9815C18.615 23.9449 18.585 23.8839 18.537 23.9022V23.8961ZM12.6817 24.9578C10.8239 26.4343 10.0028 24.3903 11.0576 23.7375C12.1304 23.0724 13.2271 22.9138 13.8624 23.8351C13.5028 24.2378 13.1132 24.61 12.6817 24.9578Z" fill="#3D74A6"/>
<path d="M18.8655 23.768C18.8176 23.9694 18.5898 24.5917 19.0153 24.5124C19.0453 24.5124 19.0693 24.4453 19.0333 24.4331C18.8176 24.366 19.0213 23.9389 19.0633 23.7925C19.1052 23.646 18.9015 23.6277 18.8655 23.768Z" fill="#3D74A6"/>
<path d="M27.0112 21.895C26.7595 21.9316 26.5078 21.9804 26.2501 22.0597C25.3691 22.3221 24.572 22.6515 23.7989 23.158C23.5652 23.3105 23.3255 23.5912 23.0797 23.8596C23.8828 22.6637 24.7578 21.4374 25.1534 20.0828C25.1893 19.9547 25.0695 19.7656 24.9256 19.8083C23.6611 20.1744 22.4025 21.4007 21.4196 22.2488C20.8743 22.7186 20.1071 23.6156 20.2809 24.4026C20.2809 24.4331 20.3169 24.4576 20.3469 24.4637C20.3888 24.4637 20.4308 24.4698 20.4727 24.4759C20.5147 24.4759 20.5386 24.4209 20.5147 24.3904C19.8015 23.5484 23.7989 20.992 24.3743 20.5649C24.8957 20.1744 24.3563 20.7906 24.2604 20.9675C23.9727 21.5289 23.6251 22.0658 23.2835 22.6027C22.852 23.2861 22.3845 23.9389 21.983 24.6406C21.8691 24.8419 22.0669 25.1043 22.2827 25.0067C22.5883 24.8724 22.7861 24.604 23.0498 24.3965C23.9188 23.7132 24.8417 23.1763 25.8725 22.798C26.2441 22.6576 26.6217 22.5661 27.0053 22.4929V21.895H27.0112Z" fill="#3D74A6"/>
<path d="M29.899 7.11121H11.9375V9.79583H29.899V7.11121Z" fill="#3D74A6"/>
<path d="M25.1884 11.5652H11.9375V12.8892H25.1884V11.5652Z" fill="#3D74A6"/>
<path d="M25.1884 14.4329H11.9375V15.7569H25.1884V14.4329Z" fill="#3D74A6"/>
</svg>
