<svg width="37" height="37" viewBox="0 0 37 37" fill="none" xmlns="http://www.w3.org/2000/svg">
<circle cx="18.5" cy="18.5" r="18.5" fill="#3D74A6"/>
<path d="M18.5004 0C8.28271 0 0 8.28271 0 18.5004C0 28.7181 8.28271 37.0008 18.5004 37.0008C28.7181 37.0008 37.0008 28.7181 37.0008 18.5004C37.0008 8.28271 28.7173 0 18.5004 0ZM18.5004 7.15442C23.4994 7.15442 27.7266 9.21788 27.8696 11.6889C27.7266 14.1591 23.4994 16.224 18.5004 16.224C13.5014 16.224 9.27414 14.1606 9.1312 11.6889C9.27414 9.21864 13.5014 7.15442 18.5004 7.15442ZM27.8832 25.1834C27.8832 27.7107 23.5868 29.8463 18.5004 29.8463C13.414 29.8463 9.11752 27.7114 9.11752 25.1834V22.9542C10.724 24.8823 14.2762 26.1939 18.5004 26.1939C22.7246 26.1939 26.2767 24.8823 27.8832 22.9542V25.1834ZM27.8832 20.6117C27.8832 23.139 23.5868 25.2739 18.5004 25.2739C13.414 25.2739 9.11752 23.1382 9.11752 20.6117V18.289C10.724 20.2171 14.2762 21.5287 18.5004 21.5287C22.7246 21.5287 26.2767 20.2164 27.8832 18.289V20.6117ZM27.8832 15.9458C27.8832 18.4723 23.5868 20.6079 18.5004 20.6079C13.414 20.6079 9.11752 18.4723 9.11752 15.9458V13.9051C10.724 15.834 14.2762 17.1448 18.5004 17.1448C22.7246 17.1448 26.2767 15.8332 27.8832 13.9051V15.9458Z" fill="#D4D4D4"/>
</svg>
