<svg width="20" height="21" viewBox="0 0 20 21" fill="none" xmlns="http://www.w3.org/2000/svg">
<path fill-rule="evenodd" clip-rule="evenodd" d="M6.88244 16.2617C5.85146 16.2617 5.00328 17.0952 5.00328 18.1262C5.00328 19.1572 5.85146 20.0054 6.88244 20.0054C7.91342 20.0054 8.7616 19.1718 8.7616 18.1262C8.7616 17.0806 7.91342 16.2617 6.88244 16.2617ZM19.3785 0H16.2563C15.9492 0 15.6933 0.226669 15.6421 0.519145L15.2765 2.50798H0.630764C0.42603 2.50798 0.228609 2.61035 0.111619 2.77852C-0.0126838 2.96132 -0.0346196 3.17337 0.0531233 3.37079L3.18262 10.8728C3.27036 11.1068 3.50434 11.2603 3.76026 11.2603H13.6898L13.2365 13.7537H5.00328C4.65962 13.7537 4.38908 14.0389 4.38908 14.3825C4.38908 14.7262 4.65962 15.0113 5.00328 15.0113H13.7483C14.0554 15.0113 14.3113 14.7993 14.3625 14.4922L16.7681 1.25765H19.3712C19.7148 1.25765 20 0.987107 20 0.628824C20 0.27054 19.7221 0 19.3712 0H19.3785ZM11.8838 16.2617C10.8455 16.2617 10.0046 17.0952 10.0046 18.1262C10.0046 19.1572 10.8455 20.0054 11.8838 20.0054C12.9221 20.0054 13.7556 19.1718 13.7556 18.1262C13.7556 17.0806 12.9148 16.2617 11.8838 16.2617Z" fill="#383838"/>
</svg>
